<?xml version="1.0" encoding="utf-8" standalone="no"?>
<!DOCTYPE svg PUBLIC "-//W3C//DTD SVG 1.1//EN"
  "http://www.w3.org/Graphics/SVG/1.1/DTD/svg11.dtd">
<svg xmlns:xlink="http://www.w3.org/1999/xlink" width="288pt" height="216pt" viewBox="0 0 288 216" xmlns="http://www.w3.org/2000/svg" version="1.1">
 <metadata>
  <rdf:RDF xmlns:dc="http://purl.org/dc/elements/1.1/" xmlns:cc="http://creativecommons.org/ns#" xmlns:rdf="http://www.w3.org/1999/02/22-rdf-syntax-ns#">
   <cc:Work>
    <dc:type rdf:resource="http://purl.org/dc/dcmitype/StillImage"/>
    <dc:date>2023-10-06T21:16:13.615909</dc:date>
    <dc:format>image/svg+xml</dc:format>
    <dc:creator>
     <cc:Agent>
      <dc:title>Matplotlib v3.8.0, https://matplotlib.org/</dc:title>
     </cc:Agent>
    </dc:creator>
   </cc:Work>
  </rdf:RDF>
 </metadata>
 <defs>
  <style type="text/css">*{stroke-linejoin: round; stroke-linecap: butt}</style>
 </defs>
 <g id="figure_1">
  <g id="patch_1">
   <path d="M 0 216 
L 288 216 
L 288 0 
L 0 0 
z
" style="fill: #ffffff"/>
  </g>
  <g id="axes_1">
   <g id="patch_2">
    <path d="M 36 192.24 
L 259.2 192.24 
L 259.2 25.92 
L 36 25.92 
z
" style="fill: #ffffff"/>
   </g>
   <g id="matplotlib.axis_1">
    <g id="text_1">
     <!-- b -->
     <g transform="translate(144.425781 203.838437) scale(0.1 -0.1)">
      <defs>
       <path id="DejaVuSans-62" d="M 3116 1747 
Q 3116 2381 2855 2742 
Q 2594 3103 2138 3103 
Q 1681 3103 1420 2742 
Q 1159 2381 1159 1747 
Q 1159 1113 1420 752 
Q 1681 391 2138 391 
Q 2594 391 2855 752 
Q 3116 1113 3116 1747 
z
M 1159 2969 
Q 1341 3281 1617 3432 
Q 1894 3584 2278 3584 
Q 2916 3584 3314 3078 
Q 3713 2572 3713 1747 
Q 3713 922 3314 415 
Q 2916 -91 2278 -91 
Q 1894 -91 1617 61 
Q 1341 213 1159 525 
L 1159 0 
L 581 0 
L 581 4863 
L 1159 4863 
L 1159 2969 
z
" transform="scale(0.015625)"/>
      </defs>
      <use xlink:href="#DejaVuSans-62"/>
     </g>
    </g>
   </g>
   <g id="matplotlib.axis_2">
    <g id="text_2">
     <!-- w -->
     <g transform="translate(29.920313 113.169062) rotate(-90) scale(0.1 -0.1)">
      <defs>
       <path id="DejaVuSans-77" d="M 269 3500 
L 844 3500 
L 1563 769 
L 2278 3500 
L 2956 3500 
L 3675 769 
L 4391 3500 
L 4966 3500 
L 4050 0 
L 3372 0 
L 2619 2869 
L 1863 0 
L 1184 0 
L 269 3500 
z
" transform="scale(0.015625)"/>
      </defs>
      <use xlink:href="#DejaVuSans-77"/>
     </g>
    </g>
   </g>
   <g id="QuadContourSet_1">
    <path clip-path="url(#p56b4526085)" style="fill: none; stroke: #000080"/>
    <path d="M 157.745455 165.455908 
L 156.511766 165.36 
L 155.490909 165.15666 
L 154.117968 163.68 
L 154.987236 162 
L 155.490909 161.694103 
L 157.745455 161.034112 
L 160 161.261718 
L 161.180214 162 
L 161.20374 163.68 
L 160 164.683421 
L 158.225743 165.36 
L 157.745455 165.455908 
z
" clip-path="url(#p56b4526085)" style="fill: none; stroke: #0000a8"/>
    <path d="M 155.490909 170.406685 
L 155.417747 170.4 
L 153.236364 170.15379 
L 150.981818 169.565322 
L 149.017964 168.72 
L 148.727273 168.537156 
L 147.05183 167.04 
L 146.472727 165.943441 
L 146.234483 165.36 
L 146.256939 163.68 
L 146.472727 163.165236 
L 147.016757 162 
L 148.477491 160.32 
L 148.727273 160.122144 
L 150.86602 158.64 
L 150.981818 158.577653 
L 153.236364 157.586152 
L 155.06751 156.96 
L 155.490909 156.840715 
L 157.745455 156.444338 
L 160 156.302326 
L 162.254545 156.454905 
L 164.509091 156.94191 
L 164.559107 156.96 
L 166.763636 158.085967 
L 167.525325 158.64 
L 168.918368 160.32 
L 169.018182 160.618308 
L 169.397674 162 
L 169.23841 163.68 
L 169.018182 164.176955 
L 168.403713 165.36 
L 166.871425 167.04 
L 166.763636 167.124099 
L 164.509091 168.551584 
L 164.160008 168.72 
L 162.254545 169.449181 
L 160 170.041111 
L 157.745455 170.363532 
L 155.889146 170.4 
L 155.490909 170.406685 
" clip-path="url(#p56b4526085)" style="fill: none; stroke: #0000d1"/>
    <path d="M 148.727273 172.439787 
L 147.702633 172.08 
L 146.472727 171.554437 
L 144.464421 170.4 
L 144.218182 170.20761 
L 142.702739 168.72 
L 141.963636 167.485328 
L 141.740274 167.04 
L 141.445839 165.36 
L 141.689734 163.68 
L 141.963636 163.075737 
L 142.477363 162 
L 143.788352 160.32 
L 144.218182 159.921217 
L 145.701139 158.64 
L 146.472727 158.11061 
L 148.311534 156.96 
L 148.727273 156.741777 
L 150.981818 155.702457 
L 152.061222 155.28 
L 153.236364 154.878168 
L 155.490909 154.269158 
L 157.745455 153.835205 
L 160 153.604638 
L 162.254545 153.607124 
L 164.509091 153.87209 
L 166.763636 154.42681 
L 168.98266 155.28 
L 169.018182 155.297744 
L 171.272727 156.784635 
L 171.488649 156.96 
L 172.960784 158.64 
L 173.527273 159.715014 
L 173.809643 160.32 
L 174.124981 162 
L 173.990426 163.68 
L 173.527273 165.042645 
L 173.407935 165.36 
L 172.307382 167.04 
L 171.272727 168.145531 
L 170.65545 168.72 
L 169.018182 169.909619 
L 168.214681 170.4 
L 166.763636 171.141021 
L 164.509091 172.065665 
L 164.463741 172.08 
L 162.254545 172.697398 
L 160 173.136471 
L 157.745455 173.389362 
L 155.490909 173.455591 
L 153.236364 173.328951 
L 150.981818 172.996939 
L 148.727273 172.439787 
" clip-path="url(#p56b4526085)" style="fill: none; stroke: #0000fa"/>
    <path d="M 150.981818 175.761443 
L 149.144958 175.44 
L 148.727273 175.360136 
L 146.472727 174.743134 
L 144.218182 173.903967 
L 143.907806 173.76 
L 141.963636 172.688242 
L 141.067194 172.08 
L 139.709091 170.883145 
L 139.244495 170.4 
L 138.138899 168.72 
L 137.573473 167.04 
L 137.505693 165.36 
L 137.901812 163.68 
L 138.735074 162 
L 139.709091 160.698785 
L 140.00232 160.32 
L 141.745866 158.64 
L 141.963636 158.471454 
L 144.014513 156.96 
L 144.218182 156.833053 
L 146.472727 155.521958 
L 146.927513 155.28 
L 148.727273 154.439611 
L 150.726326 153.6 
L 150.981818 153.502478 
L 153.236364 152.770945 
L 155.490909 152.16687 
L 156.732409 151.92 
L 157.745455 151.731155 
L 160 151.474988 
L 162.254545 151.39486 
L 164.509091 151.510111 
L 166.763636 151.838676 
L 167.104894 151.92 
L 169.018182 152.454012 
L 171.272727 153.351542 
L 171.765235 153.6 
L 173.527273 154.692471 
L 174.321197 155.28 
L 175.781818 156.688042 
L 176.032462 156.96 
L 177.145667 158.64 
L 177.827478 160.32 
L 178.036364 161.567511 
L 178.105283 162 
L 178.036364 163.211363 
L 178.008172 163.68 
L 177.533562 165.36 
L 176.681271 167.04 
L 175.781818 168.265789 
L 175.415641 168.72 
L 173.655238 170.4 
L 173.527273 170.500782 
L 171.272727 172.064084 
L 171.246106 172.08 
L 169.018182 173.236201 
L 167.801616 173.76 
L 166.763636 174.163512 
L 164.509091 174.873517 
L 162.254545 175.41545 
L 162.111408 175.44 
L 160 175.78168 
L 157.745455 175.999038 
L 155.490909 176.070213 
L 153.236364 175.993043 
L 150.981818 175.761443 
z
" clip-path="url(#p56b4526085)" style="fill: none; stroke: #0010ff"/>
    <path d="M 146.472727 177.489491 
L 145.145295 177.12 
L 144.218182 176.840499 
L 141.963636 175.97628 
L 140.82945 175.44 
L 139.709091 174.830124 
L 138.07433 173.76 
L 137.454545 173.259593 
L 136.195324 172.08 
L 135.2 170.797113 
L 134.925767 170.4 
L 134.176843 168.72 
L 133.863548 167.04 
L 133.960657 165.36 
L 134.451152 163.68 
L 135.2 162.246249 
L 135.328998 162 
L 136.614165 160.32 
L 137.454545 159.476831 
L 138.305031 158.64 
L 139.709091 157.517612 
L 140.430225 156.96 
L 141.963636 155.954173 
L 143.040592 155.28 
L 144.218182 154.631392 
L 146.206802 153.6 
L 146.472727 153.474665 
L 148.727273 152.500197 
L 150.21081 151.92 
L 150.981818 151.637505 
L 153.236364 150.9203 
L 155.490909 150.315243 
L 155.858049 150.24 
L 157.745455 149.866745 
L 160 149.56392 
L 162.254545 149.419239 
L 164.509091 149.449738 
L 166.763636 149.67116 
L 169.018182 150.096909 
L 169.538564 150.24 
L 171.272727 150.779945 
L 173.527273 151.717096 
L 173.928725 151.92 
L 175.781818 153.022766 
L 176.615893 153.6 
L 178.036364 154.808374 
L 178.537515 155.28 
L 179.923707 156.96 
L 180.290909 157.579898 
L 180.887772 158.64 
L 181.48642 160.32 
L 181.753052 162 
L 181.699674 163.68 
L 181.329979 165.36 
L 180.63915 167.04 
L 180.290909 167.624934 
L 179.59743 168.72 
L 178.183173 170.4 
L 178.036364 170.543079 
L 176.308008 172.08 
L 175.781818 172.476659 
L 173.870602 173.76 
L 173.527273 173.963824 
L 171.272727 175.139545 
L 170.598712 175.44 
L 169.018182 176.088775 
L 166.763636 176.85542 
L 165.804044 177.12 
L 164.509091 177.460341 
L 162.254545 177.919315 
L 160 178.245967 
L 157.745455 178.445271 
L 155.490909 178.519149 
L 153.236364 178.466497 
L 150.981818 178.283067 
L 148.727273 177.961217 
L 146.472727 177.489491 
z
" clip-path="url(#p56b4526085)" style="fill: none; stroke: #0034ff"/>
    <path d="M 150.981818 180.742864 
L 148.768311 180.48 
L 148.727273 180.475068 
L 146.472727 180.083047 
L 144.218182 179.55218 
L 141.963636 178.865998 
L 141.783049 178.8 
L 139.709091 177.98397 
L 137.914933 177.12 
L 137.454545 176.870932 
L 135.215804 175.44 
L 135.2 175.427994 
L 133.282223 173.76 
L 132.945455 173.382071 
L 131.902125 172.08 
L 130.977975 170.4 
L 130.690909 169.487992 
L 130.465046 168.72 
L 130.33222 167.04 
L 130.561441 165.36 
L 130.690909 164.996751 
L 131.149026 163.68 
L 132.091906 162 
L 132.945455 160.904262 
L 133.39777 160.32 
L 135.072156 158.64 
L 135.2 158.535122 
L 137.136038 156.96 
L 137.454545 156.739283 
L 139.602022 155.28 
L 139.709091 155.215946 
L 141.963636 153.910511 
L 142.524239 153.6 
L 144.218182 152.747907 
L 145.958039 151.92 
L 146.472727 151.691084 
L 148.727273 150.763258 
L 150.123131 150.24 
L 150.981818 149.930307 
L 153.236364 149.2145 
L 155.490909 148.599948 
L 155.677136 148.56 
L 157.745455 148.120672 
L 160 147.773283 
L 162.254545 147.572207 
L 164.509091 147.533035 
L 166.763636 147.670061 
L 169.018182 147.995306 
L 171.272727 148.517618 
L 171.409727 148.56 
L 173.527273 149.280572 
L 175.731303 150.24 
L 175.781818 150.264991 
L 178.036364 151.569841 
L 178.568995 151.92 
L 180.290909 153.253928 
L 180.701074 153.6 
L 182.331593 155.28 
L 182.545455 155.562545 
L 183.560869 156.96 
L 184.448061 158.64 
L 184.8 159.668604 
L 185.022177 160.32 
L 185.301509 162 
L 185.296145 163.68 
L 185.008978 165.36 
L 184.8 165.984634 
L 184.437122 167.04 
L 183.56991 168.72 
L 182.545455 170.183854 
L 182.385539 170.4 
L 180.846553 172.08 
L 180.290909 172.587423 
L 178.893951 173.76 
L 178.036364 174.386169 
L 176.430857 175.44 
L 175.781818 175.824009 
L 173.527273 177.001577 
L 173.268534 177.12 
L 171.272727 177.974122 
L 169.018182 178.781615 
L 168.957626 178.8 
L 166.763636 179.443007 
L 164.509091 179.971934 
L 162.254545 180.378597 
L 161.477949 180.48 
L 160 180.672894 
L 157.745455 180.856263 
L 155.490909 180.929543 
L 153.236364 180.892615 
L 150.981818 180.742864 
z
" clip-path="url(#p56b4526085)" style="fill: none; stroke: #0058ff"/>
    <path d="M 144.218182 182.22548 
L 143.957504 182.16 
L 141.963636 181.649528 
L 139.709091 180.927929 
L 138.54386 180.48 
L 137.454545 180.035634 
L 135.2 178.939375 
L 134.949154 178.8 
L 132.945455 177.557831 
L 132.32747 177.12 
L 130.690909 175.758693 
L 130.346719 175.44 
L 128.873777 173.76 
L 128.436364 173.089766 
L 127.823024 172.08 
L 127.151891 170.4 
L 126.83274 168.72 
L 126.850038 167.04 
L 127.196988 165.36 
L 127.875263 163.68 
L 128.436364 162.761409 
L 128.887699 162 
L 130.236597 160.32 
L 130.690909 159.874409 
L 131.932592 158.64 
L 132.945455 157.811115 
L 133.983442 156.96 
L 135.2 156.109346 
L 136.39643 155.28 
L 137.454545 154.634483 
L 139.181877 153.6 
L 139.709091 153.313919 
L 141.963636 152.125003 
L 142.368972 151.92 
L 144.218182 151.047299 
L 146.01754 150.24 
L 146.472727 150.044265 
L 148.727273 149.141191 
L 150.305806 148.56 
L 150.981818 148.314634 
L 153.236364 147.586965 
L 155.490909 146.952907 
L 155.811312 146.88 
L 157.745455 146.433609 
L 160 146.039181 
L 162.254545 145.783926 
L 164.509091 145.682616 
L 166.763636 145.748635 
L 169.018182 145.993022 
L 171.272727 146.423589 
L 172.947244 146.88 
L 173.527273 147.049066 
L 175.781818 147.885258 
L 177.278347 148.56 
L 178.036364 148.937402 
L 180.290909 150.23038 
L 180.306172 150.24 
L 182.545455 151.849323 
L 182.637099 151.92 
L 184.497449 153.6 
L 184.8 153.933823 
L 185.982341 155.28 
L 187.054545 156.843108 
L 187.134274 156.96 
L 187.992687 158.64 
L 188.566419 160.32 
L 188.871998 162 
L 188.919731 163.68 
L 188.713528 165.36 
L 188.250714 167.04 
L 187.521717 168.72 
L 187.054545 169.515771 
L 186.519037 170.4 
L 185.222129 172.08 
L 184.8 172.535535 
L 183.59693 173.76 
L 182.545455 174.673951 
L 181.592124 175.44 
L 180.290909 176.367535 
L 179.125011 177.12 
L 178.036364 177.763049 
L 176.054299 178.8 
L 175.781818 178.934018 
L 173.527273 179.924516 
L 172.048496 180.48 
L 171.272727 180.762418 
L 169.018182 181.468325 
L 166.763636 182.047575 
L 166.229361 182.16 
L 164.509091 182.52291 
L 162.254545 182.891896 
L 160 183.157619 
L 157.745455 183.324481 
L 155.490909 183.394739 
L 153.236364 183.368556 
L 150.981818 183.243972 
L 148.727273 183.016802 
L 146.472727 182.680424 
L 144.218182 182.22548 
" clip-path="url(#p56b4526085)" style="fill: none; stroke: #0080ff"/>
    <path d="M 148.727273 185.680198 
L 147.5131 185.52 
L 146.472727 185.386871 
L 144.218182 185.000748 
L 141.963636 184.503133 
L 139.709091 183.880661 
L 139.583191 183.84 
L 137.454545 183.139668 
L 135.2 182.238756 
L 135.026519 182.16 
L 132.945455 181.159363 
L 131.729617 180.48 
L 130.690909 179.843102 
L 129.189231 178.8 
L 128.436364 178.200187 
L 127.20984 177.12 
L 126.181818 176.018374 
L 125.68164 175.44 
L 124.542128 173.76 
L 123.927273 172.461661 
L 123.753872 172.08 
L 123.28559 170.4 
L 123.133448 168.72 
L 123.290607 167.04 
L 123.759618 165.36 
L 123.927273 165.008958 
L 124.52918 163.68 
L 125.61858 162 
L 126.181818 161.343458 
L 127.030022 160.32 
L 128.436364 158.971399 
L 128.774312 158.64 
L 130.690909 157.088636 
L 130.848069 156.96 
L 132.945455 155.495086 
L 133.253111 155.28 
L 135.2 154.082967 
L 135.992004 153.6 
L 137.454545 152.793246 
L 139.063999 151.92 
L 139.709091 151.594789 
L 141.963636 150.485864 
L 142.48231 150.24 
L 144.218182 149.453238 
L 146.280264 148.56 
L 146.472727 148.478209 
L 148.727273 147.580324 
L 150.62238 146.88 
L 150.981818 146.745992 
L 153.236364 145.992287 
L 155.490909 145.32714 
L 156.011121 145.2 
L 157.745455 144.760026 
L 160 144.312344 
L 162.254545 144.000723 
L 164.509091 143.839632 
L 166.763636 143.841978 
L 169.018182 144.018112 
L 171.272727 144.374942 
L 173.527273 144.915254 
L 174.435803 145.2 
L 175.781818 145.640523 
L 178.036364 146.548169 
L 178.748094 146.88 
L 180.290909 147.654636 
L 181.895091 148.56 
L 182.545455 148.966676 
L 184.426676 150.24 
L 184.8 150.528341 
L 186.516682 151.92 
L 187.054545 152.433416 
L 188.250068 153.6 
L 189.309091 154.859584 
L 189.663058 155.28 
L 190.792508 156.96 
L 191.563636 158.492065 
L 191.640398 158.64 
L 192.247532 160.32 
L 192.59998 162 
L 192.709671 163.68 
L 192.58224 165.36 
L 192.217001 167.04 
L 191.606763 168.72 
L 191.563636 168.807299 
L 190.769766 170.4 
L 189.664806 172.08 
L 189.309091 172.52688 
L 188.291652 173.76 
L 187.054545 175.013855 
L 186.610434 175.44 
L 184.8 176.954015 
L 184.586289 177.12 
L 182.545455 178.548108 
L 182.15013 178.8 
L 180.290909 179.897769 
L 179.185375 180.48 
L 178.036364 181.054752 
L 175.781818 182.046134 
L 175.490329 182.16 
L 173.527273 182.909649 
L 171.272727 183.63983 
L 170.552349 183.84 
L 169.018182 184.267973 
L 166.763636 184.79155 
L 164.509091 185.211518 
L 162.367375 185.52 
L 162.254545 185.536831 
L 160 185.785342 
L 157.745455 185.942751 
L 155.490909 186.011392 
L 153.236364 185.991748 
L 150.981818 185.88245 
L 148.727273 185.680198 
z
M 81.090909 110.734815 
L 79.751421 109.92 
L 78.836364 109.11807 
L 78.130195 108.24 
L 77.281625 106.56 
L 76.871753 104.88 
L 76.832347 103.2 
L 77.123254 101.52 
L 77.725008 99.84 
L 78.635421 98.16 
L 78.836364 97.88313 
L 80.058648 96.48 
L 81.090909 95.544084 
L 82.160644 94.8 
L 83.345455 94.121766 
L 85.6 93.266046 
L 86.422349 93.12 
L 87.854545 92.904208 
L 90.109091 92.976076 
L 90.745738 93.12 
L 92.363636 93.567597 
L 94.594256 94.8 
L 94.618182 94.818083 
L 96.033984 96.48 
L 96.866112 98.16 
L 96.872727 98.193619 
L 97.10962 99.84 
L 97.009385 101.52 
L 96.872727 102.081432 
L 96.546195 103.2 
L 95.73538 104.88 
L 94.66425 106.56 
L 94.618182 106.616995 
L 92.993255 108.24 
L 92.363636 108.781703 
L 90.62162 109.92 
L 90.109091 110.216912 
L 87.854545 111.086372 
L 85.6 111.519363 
L 83.345455 111.434441 
L 81.090909 110.734815 
z
" clip-path="url(#p56b4526085)" style="fill: none; stroke: #00a4ff"/>
    <path d="M 155.490909 188.884326 
L 154.856009 188.88 
L 153.236364 188.8698 
L 150.981818 188.77919 
L 148.727273 188.609493 
L 146.472727 188.356302 
L 144.218182 188.013277 
L 141.963636 187.571867 
L 140.421179 187.2 
L 139.709091 187.031997 
L 137.454545 186.39815 
L 135.2 185.62958 
L 134.917413 185.52 
L 132.945455 184.740563 
L 131.015342 183.84 
L 130.690909 183.681361 
L 128.436364 182.433869 
L 127.994969 182.16 
L 126.181818 180.927882 
L 125.587276 180.48 
L 123.927273 179.052116 
L 123.656876 178.8 
L 122.122062 177.12 
L 121.672727 176.503873 
L 120.933369 175.44 
L 120.067379 173.76 
L 119.508917 172.08 
L 119.418182 171.533031 
L 119.230461 170.4 
L 119.240251 168.72 
L 119.418182 167.748613 
L 119.537689 167.04 
L 120.113201 165.36 
L 120.994673 163.68 
L 121.672727 162.744574 
L 122.183298 162 
L 123.684027 160.32 
L 123.927273 160.101107 
L 125.49066 158.64 
L 126.181818 158.104921 
L 127.621435 156.96 
L 128.436364 156.40693 
L 130.068471 155.28 
L 130.690909 154.90292 
L 132.82263 153.6 
L 132.945455 153.532368 
L 135.2 152.283984 
L 135.861379 151.92 
L 137.454545 151.107382 
L 139.17842 150.24 
L 139.709091 149.98612 
L 141.963636 148.928469 
L 142.774178 148.56 
L 144.218182 147.917852 
L 146.472727 146.954876 
L 146.65891 146.88 
L 148.727273 146.042955 
L 150.954594 145.2 
L 150.981818 145.189367 
L 153.236364 144.393592 
L 155.490909 143.683594 
L 156.106481 143.52 
L 157.745455 143.057412 
L 160 142.546488 
L 162.254545 142.172423 
L 164.509091 141.949854 
L 166.763636 141.891582 
L 169.018182 142.007501 
L 171.272727 142.303656 
L 173.527273 142.781563 
L 175.781818 143.437897 
L 176.012526 143.52 
L 178.036364 144.255532 
L 180.215666 145.2 
L 180.290909 145.234242 
L 182.545455 146.377555 
L 183.449641 146.88 
L 184.8 147.69191 
L 186.157502 148.56 
L 187.054545 149.197755 
L 188.469609 150.24 
L 189.309091 150.946804 
L 190.450933 151.92 
L 191.563636 153.036139 
L 192.130705 153.6 
L 193.529784 155.28 
L 193.818182 155.712626 
L 194.679406 156.96 
L 195.564195 158.64 
L 196.072727 159.994507 
L 196.202632 160.32 
L 196.624398 162 
L 196.810999 163.68 
L 196.771268 165.36 
L 196.507528 167.04 
L 196.072727 168.531822 
L 196.01901 168.72 
L 195.330998 170.4 
L 194.400857 172.08 
L 193.818182 172.925494 
L 193.234332 173.76 
L 191.811708 175.44 
L 191.563636 175.69559 
L 190.122819 177.12 
L 189.309091 177.826003 
L 188.117737 178.8 
L 187.054545 179.58672 
L 185.749672 180.48 
L 184.8 181.084188 
L 182.937475 182.16 
L 182.545455 182.375431 
L 180.290909 183.50456 
L 179.539087 183.84 
L 178.036364 184.496006 
L 175.781818 185.352914 
L 175.284922 185.52 
L 173.527273 186.113466 
L 171.272727 186.762836 
L 169.468706 187.2 
L 169.018182 187.312345 
L 166.763636 187.790362 
L 164.509091 188.174056 
L 162.254545 188.470715 
L 160 188.685739 
L 157.745455 188.822808 
L 155.638551 188.88 
L 155.490909 188.884326 
z
M 78.836364 117.128281 
L 77.178466 116.64 
L 76.581818 116.427582 
L 74.327273 115.205543 
L 73.985367 114.96 
L 72.138789 113.28 
L 72.072727 113.20167 
L 70.91963 111.6 
L 70.05467 109.92 
L 69.818182 109.249528 
L 69.489558 108.24 
L 69.164349 106.56 
L 69.044061 104.88 
L 69.113565 103.2 
L 69.365008 101.52 
L 69.796986 99.84 
L 69.818182 99.781421 
L 70.429339 98.16 
L 71.261811 96.48 
L 72.072727 95.175607 
L 72.324715 94.8 
L 73.685154 93.12 
L 74.327273 92.453431 
L 75.430106 91.44 
L 76.581818 90.536389 
L 77.758503 89.76 
L 78.836364 89.141468 
L 81.090909 88.131535 
L 81.248264 88.08 
L 83.345455 87.471682 
L 85.6 87.084669 
L 87.854545 86.955435 
L 90.109091 87.078187 
L 92.363636 87.452051 
L 94.617009 88.08 
L 94.618182 88.080362 
L 96.872727 89.088659 
L 98.00828 89.76 
L 99.127273 90.551642 
L 100.120809 91.44 
L 101.381818 92.909854 
L 101.530192 93.12 
L 102.370711 94.8 
L 102.861717 96.48 
L 103.047093 98.16 
L 102.969004 99.84 
L 102.663636 101.52 
L 102.159742 103.2 
L 101.479031 104.88 
L 101.381818 105.06826 
L 100.537863 106.56 
L 99.425519 108.24 
L 99.127273 108.629013 
L 98.015589 109.92 
L 96.872727 111.115969 
L 96.338232 111.6 
L 94.618182 113.028417 
L 94.257185 113.28 
L 92.363636 114.513107 
L 91.517472 114.96 
L 90.109091 115.668777 
L 87.854545 116.548104 
L 87.502684 116.64 
L 85.6 117.124193 
L 83.345455 117.428517 
L 81.090909 117.44113 
L 78.836364 117.128281 
z
" clip-path="url(#p56b4526085)" style="fill: none; stroke: #00c8ff"/>
    <path d="M 139.709091 190.598762 
L 135.2 189.397869 
L 130.690909 187.755932 
L 128.436364 186.737724 
L 126.122228 185.52 
L 123.421906 183.84 
L 121.200482 182.16 
L 119.379669 180.48 
L 117.885066 178.8 
L 116.709687 177.12 
L 115.813278 175.44 
L 115.203907 173.76 
L 114.858853 172.08 
L 114.768033 170.4 
L 114.949473 168.72 
L 115.385088 167.04 
L 116.103728 165.36 
L 117.163636 163.648713 
L 118.426851 162 
L 120.045352 160.32 
L 121.975734 158.64 
L 124.208469 156.96 
L 128.436364 154.272005 
L 130.690909 152.98276 
L 135.2 150.616648 
L 139.709091 148.441433 
L 147.054854 145.2 
L 151.224731 143.52 
L 155.490909 141.982206 
L 160 140.688603 
L 162.906077 140.16 
L 164.509091 139.935745 
L 166.763636 139.808185 
L 169.018182 139.874856 
L 171.378122 140.16 
L 173.527273 140.571266 
L 175.781818 141.181597 
L 178.036364 141.956802 
L 181.725378 143.52 
L 185.036764 145.2 
L 187.903207 146.88 
L 191.563636 149.405205 
L 193.818182 151.222418 
L 194.642976 151.92 
L 196.339011 153.6 
L 198.327273 156.042912 
L 199.003142 156.96 
L 199.964187 158.64 
L 200.676901 160.32 
L 201.193177 162 
L 201.47771 163.68 
L 201.544293 165.36 
L 201.399576 167.04 
L 201.043531 168.72 
L 200.478168 170.4 
L 199.734081 172.08 
L 198.327273 174.370814 
L 197.572948 175.44 
L 196.072727 177.192344 
L 193.818182 179.40029 
L 191.563636 181.24664 
L 189.309091 182.833664 
L 187.054545 184.217924 
L 182.545455 186.52789 
L 178.036364 188.343656 
L 173.527273 189.765056 
L 169.018182 190.83073 
L 164.509091 191.601563 
L 160 192.059707 
L 155.490909 192.238143 
L 150.981818 192.146938 
L 146.472727 191.774083 
L 141.963636 191.083097 
L 139.709091 190.598762 
M 74.327273 121.796169 
L 72.072727 121.043572 
L 69.818182 119.917545 
L 67.563636 118.262094 
L 65.979734 116.64 
L 64.732987 114.96 
L 63.788932 113.28 
L 63.054545 111.510921 
L 62.567322 109.92 
L 62.226192 108.24 
L 62.041796 106.56 
L 62.00239 104.88 
L 62.101009 103.2 
L 62.334884 101.52 
L 63.054545 98.686074 
L 63.212337 98.16 
L 63.855398 96.48 
L 65.309091 93.670731 
L 65.63459 93.12 
L 67.563636 90.513521 
L 68.218073 89.76 
L 69.934108 88.08 
L 72.083184 86.4 
L 74.974193 84.72 
L 76.581818 84.002266 
L 79.616655 83.04 
L 81.090909 82.709432 
L 83.345455 82.403889 
L 85.6 82.294702 
L 87.854545 82.369623 
L 90.109091 82.619093 
L 92.381193 83.04 
L 94.618182 83.648632 
L 97.539329 84.72 
L 99.127273 85.455163 
L 101.381818 86.74096 
L 103.636364 88.457718 
L 104.924123 89.76 
L 106.168941 91.44 
L 106.97841 93.12 
L 107.464517 94.8 
L 107.668517 96.48 
L 107.631923 98.16 
L 107.391295 99.84 
L 106.975795 101.52 
L 105.890909 104.413671 
L 105.685053 104.88 
L 104.791051 106.56 
L 103.636364 108.433572 
L 101.381818 111.348303 
L 99.539397 113.28 
L 97.658313 114.96 
L 95.470283 116.64 
L 94.618182 117.24385 
L 92.363636 118.6249 
L 89.564851 120 
L 87.854545 120.709678 
L 84.582105 121.68 
L 83.345455 121.972357 
L 81.090909 122.283949 
L 78.836364 122.372656 
L 76.581818 122.218636 
L 74.327273 121.796169 
L 74.327273 121.796169 
" clip-path="url(#p56b4526085)" style="fill: none; stroke: #06ecf1"/>
    <path d="M 129.80031 192.24 
L 128.436364 191.734193 
L 123.927273 189.686067 
L 121.672727 188.439976 
L 119.418182 187.007838 
L 117.163636 185.340234 
L 114.909091 183.334295 
L 113.772469 182.16 
L 112.423879 180.48 
L 111.315089 178.8 
L 110.4 176.873171 
L 109.874219 175.44 
L 109.507552 173.76 
L 109.387519 172.08 
L 109.514564 170.4 
L 109.900028 168.72 
L 110.551634 167.04 
L 111.439359 165.36 
L 112.660843 163.68 
L 114.120519 162 
L 117.163636 159.337141 
L 118.005497 158.64 
L 121.672727 156.18381 
L 123.927273 154.820645 
L 128.436364 152.356312 
L 130.690909 151.210349 
L 137.454545 147.964858 
L 147.358317 143.52 
L 151.299218 141.84 
L 155.531721 140.16 
L 157.745455 139.353748 
L 162.254545 138.093924 
L 164.509091 137.690217 
L 166.763636 137.492013 
L 169.018182 137.50728 
L 171.272727 137.737396 
L 174.615112 138.48 
L 175.781818 138.786182 
L 179.583809 140.16 
L 182.545455 141.429298 
L 187.054545 143.695962 
L 191.563636 146.303581 
L 193.818182 147.753587 
L 196.072727 149.3259 
L 198.327273 151.061134 
L 199.404564 151.92 
L 201.226101 153.6 
L 202.836364 155.343576 
L 204.15718 156.96 
L 205.236681 158.64 
L 206.128859 160.32 
L 206.762611 162 
L 207.168762 163.68 
L 207.370851 165.36 
L 207.345455 167.304365 
L 207.190072 168.72 
L 206.817019 170.4 
L 206.246956 172.08 
L 205.090909 174.410776 
L 204.51189 175.44 
L 202.836364 177.763865 
L 202.000717 178.8 
L 200.412496 180.48 
L 198.327273 182.401903 
L 196.072727 184.204247 
L 193.818182 185.781753 
L 189.309091 188.442087 
L 187.054545 189.57366 
L 182.545455 191.504251 
L 180.477088 192.24 
M 69.818182 126.747143 
L 67.563636 126.069207 
L 65.209191 125.04 
L 62.518461 123.36 
L 60.544618 121.68 
L 58.545455 119.385083 
L 57.777237 118.32 
L 56.290909 115.574827 
L 56.001359 114.96 
L 55.366699 113.28 
L 54.888425 111.6 
L 54.547385 109.92 
L 54.329602 108.24 
L 54.227908 104.88 
L 54.543379 101.52 
L 55.280916 98.16 
L 56.476638 94.8 
L 57.233687 93.12 
L 58.545455 90.794624 
L 59.19014 89.76 
L 60.8 87.614761 
L 61.836271 86.4 
L 63.522908 84.72 
L 65.55129 83.04 
L 68.09585 81.36 
L 69.818182 80.443653 
L 72.072727 79.484235 
L 74.327273 78.762818 
L 76.581818 78.253627 
L 78.836364 77.934024 
L 81.090909 77.786766 
L 83.345455 77.798333 
L 85.920207 78 
L 87.854545 78.251259 
L 90.109091 78.676194 
L 93.896492 79.68 
L 94.618182 79.892771 
L 98.510871 81.36 
L 99.127273 81.618479 
L 102.016975 83.04 
L 104.809673 84.72 
L 107.049787 86.4 
L 108.807246 88.08 
L 110.4 90.23722 
L 111.047535 91.44 
L 111.620766 93.12 
L 111.89448 94.8 
L 111.913461 96.48 
L 111.719969 98.16 
L 111.349415 99.84 
L 110.4 102.611846 
L 110.171705 103.2 
L 108.487124 106.56 
L 107.453028 108.24 
L 105.890909 110.456927 
L 103.555685 113.28 
L 101.381818 115.490709 
L 98.096654 118.32 
L 95.830497 120 
L 93.251934 121.68 
L 92.363636 122.231876 
L 90.109091 123.452883 
L 86.497788 125.04 
L 85.6 125.409242 
L 83.345455 126.145511 
L 81.052428 126.72 
L 78.836364 127.114142 
L 76.581818 127.330641 
L 74.327273 127.352819 
L 72.072727 127.165365 
L 69.818182 126.747143 
L 69.818182 126.747143 
" clip-path="url(#p56b4526085)" style="fill: none; stroke: #23ffd4"/>
    <path d="M 114.559779 192.24 
L 112.654545 190.938447 
L 112.14312 190.56 
L 110.4 189.174562 
L 110.051331 188.88 
L 108.245707 187.2 
L 108.145455 187.096535 
L 106.666856 185.52 
L 105.890909 184.535885 
L 105.348508 183.84 
L 104.248619 182.16 
L 103.636364 180.967187 
L 103.380764 180.48 
L 102.69416 178.8 
L 102.239593 177.12 
L 102.003343 175.44 
L 101.980848 173.76 
L 102.177337 172.08 
L 102.609591 170.4 
L 103.309428 168.72 
L 103.636364 168.178114 
L 104.234766 167.04 
L 105.449332 165.36 
L 105.890909 164.896173 
L 106.927425 163.68 
L 108.145455 162.578064 
L 108.726662 162 
L 110.4 160.684503 
L 110.828048 160.32 
L 112.654545 159.060415 
L 113.225036 158.64 
L 114.909091 157.610777 
L 115.917569 156.96 
L 117.163636 156.277368 
L 118.905518 155.28 
L 119.418182 155.024968 
L 121.672727 153.8488 
L 122.129366 153.6 
L 123.927273 152.726591 
L 125.544218 151.92 
L 126.181818 151.629662 
L 128.436364 150.566777 
L 129.110675 150.24 
L 130.690909 149.521602 
L 132.775958 148.56 
L 132.945455 148.48487 
L 135.2 147.459213 
L 136.465578 146.88 
L 137.454545 146.432324 
L 139.709091 145.407798 
L 140.16804 145.2 
L 141.963636 144.371911 
L 143.838317 143.52 
L 144.218182 143.339493 
L 146.472727 142.292241 
L 147.484184 141.84 
L 148.727273 141.240762 
L 150.981818 140.208891 
L 151.097331 140.16 
L 153.236364 139.153961 
L 154.814051 138.48 
L 155.490909 138.149502 
L 157.745455 137.187802 
L 158.832857 136.8 
L 160 136.311097 
L 162.254545 135.577031 
L 164.27557 135.12 
L 164.509091 135.056695 
L 166.763636 134.736848 
L 169.018182 134.705871 
L 171.272727 134.955034 
L 172.004769 135.12 
L 173.527273 135.421423 
L 175.781818 136.077929 
L 177.71769 136.8 
L 178.036364 136.909341 
L 180.290909 137.823068 
L 181.726479 138.48 
L 182.545455 138.838699 
L 184.8 139.91317 
L 185.293371 140.16 
L 187.054545 141.033868 
L 188.619635 141.84 
L 189.309091 142.201916 
L 191.563636 143.405084 
L 191.781423 143.52 
L 193.818182 144.649544 
L 194.82292 145.2 
L 196.072727 145.937429 
L 197.709747 146.88 
L 198.327273 147.272151 
L 200.430828 148.56 
L 200.581818 148.664371 
L 202.836364 150.143101 
L 202.993726 150.24 
L 205.090909 151.73695 
L 205.366 151.92 
L 207.345455 153.482073 
L 207.507661 153.6 
L 209.421616 155.28 
L 209.6 155.473702 
L 211.113251 156.96 
L 211.854545 157.888843 
L 212.526376 158.64 
L 213.68332 160.32 
L 214.109091 161.150236 
L 214.608066 162 
L 215.309381 163.68 
L 215.764546 165.36 
L 216.005671 167.04 
L 216.052622 168.72 
L 215.915731 170.4 
L 215.597398 172.08 
L 215.092903 173.76 
L 214.390648 175.44 
L 214.109091 175.982294 
L 213.548725 177.12 
L 212.525572 178.8 
L 211.854545 179.726675 
L 211.322576 180.48 
L 209.938053 182.16 
L 209.6 182.527041 
L 208.390136 183.84 
L 207.345455 184.842675 
L 206.627662 185.52 
L 205.090909 186.836425 
L 204.65216 187.2 
L 202.836364 188.597775 
L 202.451242 188.88 
L 200.581818 190.17941 
L 199.997408 190.56 
L 198.327273 191.611682 
L 197.245142 192.24 
M 67.563636 133.5672 
L 66.183642 133.44 
L 65.309091 133.356136 
L 63.054545 132.953372 
L 60.8 132.325537 
L 59.301566 131.76 
L 58.545455 131.448763 
L 56.290909 130.293592 
L 55.932908 130.08 
L 54.036364 128.804693 
L 53.502164 128.4 
L 51.781818 126.896782 
L 51.593016 126.72 
L 50.017982 125.04 
L 49.527273 124.419873 
L 48.70099 123.36 
L 47.607094 121.68 
L 47.272727 121.072446 
L 46.666952 120 
L 45.877752 118.32 
L 45.241837 116.64 
L 45.018182 115.914655 
L 44.702927 114.96 
L 44.262518 113.28 
L 43.932133 111.6 
L 43.700961 109.92 
L 43.561115 108.24 
L 43.507166 106.56 
L 43.53583 104.88 
L 43.645765 103.2 
L 43.837468 101.52 
L 44.113271 99.84 
L 44.47742 98.16 
L 44.936253 96.48 
L 45.018182 96.227524 
L 45.444819 94.8 
L 46.046157 93.12 
L 46.762772 91.44 
L 47.272727 90.40903 
L 47.576643 89.76 
L 48.476314 88.08 
L 49.527273 86.420065 
L 49.539594 86.4 
L 50.684024 84.72 
L 51.781818 83.349254 
L 52.02904 83.04 
L 53.540975 81.36 
L 54.036364 80.873095 
L 55.29385 79.68 
L 56.290909 78.845928 
L 57.373069 78 
L 58.545455 77.181128 
L 59.922484 76.32 
L 60.8 75.823061 
L 63.054545 74.735319 
L 63.285984 74.64 
L 65.309091 73.871393 
L 67.563636 73.229878 
L 68.871028 72.96 
L 69.818182 72.776182 
L 72.072727 72.490611 
L 74.327273 72.365811 
L 76.581818 72.385533 
L 78.836364 72.536724 
L 81.090909 72.808779 
L 81.937544 72.96 
L 83.345455 73.184237 
L 85.6 73.655815 
L 87.854545 74.223293 
L 89.251176 74.64 
L 90.109091 74.87661 
L 92.363636 75.607581 
L 94.332084 76.32 
L 94.618182 76.418777 
L 96.872727 77.308804 
L 98.47581 78 
L 99.127273 78.277267 
L 101.381818 79.333497 
L 102.067181 79.68 
L 103.636364 80.493145 
L 105.203578 81.36 
L 105.890909 81.762983 
L 107.942019 83.04 
L 108.145455 83.179569 
L 110.277423 84.72 
L 110.4 84.822282 
L 112.216632 86.4 
L 112.654545 86.866671 
L 113.765802 88.08 
L 114.909091 89.750584 
L 114.915508 89.76 
L 115.695814 91.44 
L 116.120057 93.12 
L 116.236296 94.8 
L 116.095982 96.48 
L 115.746124 98.16 
L 115.224879 99.84 
L 114.909091 100.625908 
L 114.571392 101.52 
L 113.808817 103.2 
L 112.93716 104.88 
L 112.654545 105.359214 
L 111.968819 106.56 
L 110.903493 108.24 
L 110.4 108.958962 
L 109.731481 109.92 
L 108.456929 111.6 
L 108.145455 111.978577 
L 107.057964 113.28 
L 105.890909 114.588713 
L 105.547793 114.96 
L 103.90768 116.64 
L 103.636364 116.906408 
L 102.119042 118.32 
L 101.381818 118.989875 
L 100.190309 120 
L 99.127273 120.893301 
L 98.108024 121.68 
L 96.872727 122.641185 
L 95.852138 123.36 
L 94.618182 124.251403 
L 93.395647 125.04 
L 92.363636 125.734778 
L 90.703941 126.72 
L 90.109091 127.094995 
L 87.854545 128.331726 
L 87.707834 128.4 
L 85.6 129.462727 
L 84.156151 130.08 
L 83.345455 130.46193 
L 81.090909 131.336514 
L 79.739953 131.76 
L 78.836364 132.078384 
L 76.581818 132.688414 
L 74.327273 133.142636 
L 72.089401 133.44 
L 72.072727 133.44255 
L 69.818182 133.593496 
L 67.563636 133.5672 
z
" clip-path="url(#p56b4526085)" style="fill: none; stroke: #40ffb7"/>
    <path d="M 81.43119 192.24 
L 81.301098 190.56 
L 81.262842 188.88 
L 81.319457 187.2 
L 81.477926 185.52 
L 81.750182 183.84 
L 82.154845 182.16 
L 82.720184 180.48 
L 83.345455 179.125491 
L 83.453771 178.8 
L 84.226782 177.12 
L 85.253753 175.44 
L 85.6 175.016223 
L 86.380322 173.76 
L 87.778962 172.08 
L 87.854545 172.010885 
L 89.249425 170.4 
L 90.109091 169.654496 
L 90.985971 168.72 
L 92.363636 167.61236 
L 92.957677 167.04 
L 94.618182 165.82175 
L 95.155849 165.36 
L 96.872727 164.222889 
L 97.588642 163.68 
L 99.127273 162.766387 
L 100.278365 162 
L 101.381818 161.414881 
L 103.259813 160.32 
L 103.636364 160.141943 
L 105.890909 158.960234 
L 106.449949 158.64 
L 108.145455 157.836322 
L 109.884738 156.96 
L 110.4 156.740706 
L 112.654545 155.698573 
L 113.503392 155.28 
L 114.909091 154.680624 
L 117.163636 153.674992 
L 117.319219 153.6 
L 119.418182 152.703167 
L 121.191946 151.92 
L 121.672727 151.727521 
L 123.927273 150.768257 
L 125.123354 150.24 
L 126.181818 149.804668 
L 128.436364 148.841298 
L 129.069464 148.56 
L 130.690909 147.870287 
L 132.945455 146.89194 
L 132.97206 146.88 
L 135.2 145.895003 
L 136.755252 145.2 
L 137.454545 144.884236 
L 139.709091 143.852354 
L 140.433738 143.52 
L 141.963636 142.789084 
L 143.966672 141.84 
L 144.218182 141.712395 
L 146.472727 140.586731 
L 147.355952 140.16 
L 148.727273 139.427295 
L 150.587133 138.48 
L 150.981818 138.250833 
L 153.236364 137.030046 
L 153.70448 136.8 
L 155.490909 135.766087 
L 156.763289 135.12 
L 157.745455 134.513328 
L 159.830274 133.44 
L 160 133.330079 
L 162.254545 132.206709 
L 163.568823 131.76 
L 164.509091 131.350284 
L 166.763636 130.8503 
L 169.018182 130.814017 
L 171.272727 131.195336 
L 172.988898 131.76 
L 173.527273 131.903483 
L 175.781818 132.766689 
L 177.195057 133.44 
L 178.036364 133.786359 
L 180.290909 134.869125 
L 180.764774 135.12 
L 182.545455 135.976813 
L 184.140953 136.8 
L 184.8 137.119817 
L 187.054545 138.262669 
L 187.477797 138.48 
L 189.309091 139.398689 
L 190.818707 140.16 
L 191.563636 140.537298 
L 193.818182 141.665452 
L 194.180596 141.84 
L 196.072727 142.785028 
L 197.59469 143.52 
L 198.327273 143.895837 
L 200.581818 144.994972 
L 201.034329 145.2 
L 202.836364 146.092501 
L 204.526727 146.88 
L 205.090909 147.173756 
L 207.345455 148.250565 
L 208.058306 148.56 
L 209.6 149.327772 
L 211.591201 150.24 
L 211.854545 150.381351 
L 214.109091 151.450363 
L 215.211169 151.92 
L 216.363636 152.509625 
L 218.618182 153.544302 
L 218.760483 153.6 
L 220.872727 154.616248 
L 222.420405 155.28 
L 223.127273 155.660085 
L 225.381818 156.704953 
L 226.029111 156.96 
L 227.636364 157.771833 
L 229.605717 158.64 
L 229.890909 158.804336 
L 232.145455 159.876621 
L 233.242291 160.32 
L 234.4 160.94464 
L 236.654545 161.978448 
L 236.713709 162 
L 238.909091 163.089091 
L 240.320286 163.68 
L 241.163636 164.169957 
L 243.418182 165.240887 
L 243.737335 165.36 
L 245.672727 166.38094 
L 247.196194 167.04 
L 247.927273 167.495217 
L 250.181818 168.608391 
L 250.477387 168.72 
L 252.436364 169.802582 
L 253.798372 170.4 
L 254.690909 170.982944 
L 256.856551 172.08 
L 256.945455 172.148231 
L 259.2 173.415836 
M 36 50.475881 
L 37.634524 51.12 
L 38.254545 51.283335 
L 40.509091 52.034016 
L 42.538713 52.8 
L 42.763636 52.858045 
L 45.018182 53.605691 
L 47.272727 54.436713 
L 47.364594 54.48 
L 49.527273 55.193877 
L 51.781818 56.022592 
L 52.08199 56.16 
L 54.036364 56.801662 
L 56.290909 57.633173 
L 56.751024 57.84 
L 58.545455 58.432429 
L 60.8 59.271822 
L 61.356242 59.52 
L 63.054545 60.090044 
L 65.309091 60.942428 
L 65.88474 61.2 
L 67.563636 61.779061 
L 69.818182 62.649593 
L 70.326791 62.88 
L 72.072727 63.504939 
L 74.327273 64.398834 
L 74.67575 64.56 
L 76.581818 65.274309 
L 78.836364 66.196795 
L 78.927245 66.24 
L 81.090909 67.095263 
L 83.0139 67.92 
L 83.345455 68.040856 
L 85.6 68.977697 
L 86.973494 69.6 
L 87.854545 69.948588 
L 90.109091 70.933675 
L 90.831772 71.28 
L 92.363636 71.939337 
L 94.577396 72.96 
L 94.618182 72.977296 
L 96.872727 74.031974 
L 98.098053 74.64 
L 99.127273 75.124404 
L 101.381818 76.249734 
L 101.514319 76.32 
L 103.636364 77.422784 
L 104.704324 78 
L 105.890909 78.646814 
L 107.722662 79.68 
L 108.145455 79.928185 
L 110.4 81.289869 
L 110.514774 81.36 
L 112.654545 82.779892 
L 113.047789 83.04 
L 114.909091 84.433948 
L 115.297924 84.72 
L 117.163636 86.355575 
L 117.216214 86.4 
L 118.782647 88.08 
L 119.418182 89.02721 
L 119.938714 89.76 
L 120.681922 91.44 
L 121.007191 93.12 
L 120.97495 94.8 
L 120.649506 96.48 
L 120.088951 98.16 
L 119.418182 99.659308 
L 119.346513 99.84 
L 118.52398 101.52 
L 117.581696 103.2 
L 117.163636 103.859346 
L 116.569854 104.88 
L 115.48656 106.56 
L 114.909091 107.373862 
L 114.327788 108.24 
L 113.096205 109.92 
L 112.654545 110.474284 
L 111.783192 111.6 
L 110.4 113.261367 
L 110.384579 113.28 
L 108.897196 114.96 
L 108.145455 115.764781 
L 107.315926 116.64 
L 105.890909 118.083368 
L 105.649345 118.32 
L 103.887677 120 
L 103.636364 120.236718 
L 102.026292 121.68 
L 101.381818 122.26034 
L 100.078104 123.36 
L 99.127273 124.179437 
L 98.045325 125.04 
L 96.872727 126.009512 
L 95.928638 126.72 
L 94.618182 127.763092 
L 93.727589 128.4 
L 92.363636 129.449685 
L 91.440902 130.08 
L 90.109091 131.075929 
L 89.066752 131.76 
L 87.854545 132.645791 
L 86.603082 133.44 
L 85.6 134.160738 
L 84.047995 135.12 
L 83.345455 135.619812 
L 81.400289 136.8 
L 81.090909 137.019615 
L 78.836364 138.371865 
L 78.620976 138.48 
L 76.581818 139.698333 
L 75.657503 140.16 
L 74.327273 140.963348 
L 72.584787 141.84 
L 72.072727 142.156473 
L 69.818182 143.306562 
L 69.308908 143.52 
L 67.563636 144.434113 
L 65.805395 145.2 
L 65.309091 145.47453 
L 63.054545 146.492481 
L 62.015474 146.88 
L 60.8 147.466022 
L 58.545455 148.36855 
L 57.957376 148.56 
L 56.290909 149.27447 
L 54.036364 150.091487 
L 53.529522 150.24 
L 51.781818 150.927462 
L 49.527273 151.683458 
L 48.667007 151.92 
L 47.272727 152.444948 
L 45.018182 153.160483 
L 43.397342 153.6 
L 42.763636 153.840165 
L 40.509091 154.533172 
L 38.254545 155.151299 
L 37.670924 155.28 
L 36 155.807256 
M 160 103.424229 
L 159.775232 103.2 
L 158.18087 101.52 
L 157.745455 100.981423 
L 157.191846 99.84 
L 156.725659 98.16 
L 156.880743 96.48 
L 157.745455 95.230348 
L 158.469627 94.8 
L 160 94.353774 
L 162.254545 94.610454 
L 162.600003 94.8 
L 164.292108 96.48 
L 164.509091 97.013757 
L 164.758655 98.16 
L 164.728092 99.84 
L 164.509091 100.988298 
L 164.294596 101.52 
L 163.036731 103.2 
L 162.254545 103.897303 
L 160 103.424229 
z
" clip-path="url(#p56b4526085)" style="fill: none; stroke: #5dff9a"/>
    <path d="M 97.934409 25.92 
L 94.618182 27.92868 
L 92.363636 29.465572 
L 90.109091 31.162509 
L 87.854545 33.062875 
L 85.6 35.239722 
L 84.865952 36 
L 82.164589 39.36 
L 80.179383 42.72 
L 79.456381 44.4 
L 78.836364 46.541463 
L 78.559663 47.76 
L 78.381472 49.44 
L 78.415855 51.12 
L 78.836364 53.317394 
L 79.144065 54.48 
L 79.841233 56.16 
L 81.090909 58.150367 
L 82.062824 59.52 
L 83.610383 61.2 
L 85.6 63.016583 
L 87.854545 64.813175 
L 90.109091 66.427149 
L 95.06098 69.6 
L 108.145455 77.068537 
L 115.439114 81.36 
L 120.547079 84.72 
L 124.710779 88.08 
L 126.186888 89.76 
L 127.243724 91.44 
L 127.607612 93.12 
L 127.360186 94.8 
L 126.600764 96.48 
L 126.181818 97.072652 
L 125.588092 98.16 
L 123.178096 101.52 
L 116.591192 109.92 
L 112.654545 114.433193 
L 110.4 116.848939 
L 105.890909 121.344065 
L 96.872727 129.700461 
L 94.635902 131.76 
L 94.618182 131.778575 
L 91.142199 135.12 
L 86.673469 140.16 
L 84.503999 143.52 
L 83.763778 145.2 
L 83.291092 146.88 
L 83.108173 148.56 
L 83.345455 150.357896 
L 83.953605 151.92 
L 85.6 153.876925 
L 87.854545 155.280026 
L 90.109091 156.017891 
L 92.363636 156.38209 
L 94.618182 156.478935 
L 96.872727 156.377359 
L 99.127273 156.123118 
L 103.636364 155.270363 
L 108.145455 154.128776 
L 115.272159 151.92 
L 121.672727 149.706194 
L 129.047792 146.88 
L 135.2 144.296415 
L 140.520514 141.84 
L 146.472727 138.71141 
L 146.905547 138.48 
L 152.251192 135.12 
L 156.523724 131.76 
L 159.604016 128.4 
L 160 127.643144 
L 160.664589 126.72 
L 161.296854 125.04 
L 161.418536 123.36 
L 161.050827 121.68 
L 159.225314 118.32 
L 153.236364 109.736084 
L 145.815659 98.16 
L 145.120185 96.48 
L 144.882691 94.8 
L 145.375366 93.12 
L 146.941456 91.44 
L 149.921949 89.76 
L 153.236364 88.65785 
L 155.490909 88.079058 
L 157.745455 87.751787 
L 160 87.567552 
L 162.254545 87.55134 
L 164.509091 87.734585 
L 166.763636 88.182036 
L 169.018182 89.117123 
L 170.061583 89.76 
L 171.714527 91.44 
L 172.544001 93.12 
L 172.971597 94.8 
L 173.13625 96.48 
L 173.023823 99.84 
L 172.263873 106.56 
L 170.952628 118.32 
L 170.934811 120 
L 171.272727 121.815351 
L 171.772601 123.36 
L 172.858822 125.04 
L 173.527273 125.669547 
L 174.419518 126.72 
L 178.639986 130.08 
L 183.898956 133.44 
L 190.058912 136.8 
L 193.818182 138.640491 
L 198.327273 140.641219 
L 202.836364 142.415618 
L 207.345455 143.927989 
L 211.854545 145.119716 
L 216.363636 145.92918 
L 218.618182 146.151524 
L 220.872727 146.235255 
L 223.127273 146.165579 
L 225.381818 145.924419 
L 228.694936 145.2 
L 229.890909 144.849142 
L 233.106084 143.52 
L 234.4 142.845748 
L 236.654545 141.419199 
L 238.909091 139.658434 
L 241.163636 137.499508 
L 241.822822 136.8 
L 244.469045 133.44 
L 246.541707 130.08 
L 248.167286 126.72 
L 249.472196 123.36 
L 250.43358 120 
L 251.146564 116.64 
L 251.566499 113.28 
L 251.719096 109.92 
L 251.612306 106.56 
L 251.238472 103.2 
L 250.574889 99.84 
L 249.653093 96.48 
L 248.43999 93.12 
L 246.949153 89.76 
L 245.158213 86.4 
L 243.10805 83.04 
L 240.850365 79.68 
L 232.714986 67.92 
L 230.752081 64.56 
L 228.97459 61.2 
L 223.806162 51.12 
L 220.673162 46.08 
L 218.212127 42.72 
L 215.351005 39.36 
L 211.854545 35.899115 
L 209.6 33.913322 
L 205.806498 30.96 
L 202.836364 28.931855 
L 198.327273 26.225029 
L 197.762902 25.92 
L 197.762902 25.92 
" clip-path="url(#p56b4526085)" style="fill: none; stroke: #7dff7a"/>
    <path d="M 114.386359 25.92 
L 112.654545 26.573087 
L 110.4 27.540684 
L 110.270433 27.6 
L 108.145455 28.569031 
L 106.747589 29.28 
L 105.890909 29.72144 
L 103.701784 30.96 
L 103.636364 30.99818 
L 101.381818 32.395957 
L 101.013666 32.64 
L 99.127273 33.963419 
L 98.646038 34.32 
L 96.872727 35.740782 
L 96.561646 36 
L 94.72916 37.68 
L 94.618182 37.792988 
L 93.102856 39.36 
L 92.363636 40.250914 
L 91.708582 41.04 
L 90.524019 42.72 
L 90.109091 43.43089 
L 89.528519 44.4 
L 88.727927 46.08 
L 88.143332 47.76 
L 87.854545 49.015653 
L 87.750499 49.44 
L 87.542121 51.12 
L 87.551392 52.8 
L 87.78733 54.48 
L 87.854545 54.714248 
L 88.222862 56.16 
L 88.892185 57.84 
L 89.837711 59.52 
L 90.109091 59.886431 
L 90.997394 61.2 
L 92.363636 62.768228 
L 92.453685 62.88 
L 94.119996 64.56 
L 94.618182 64.976345 
L 96.040404 66.24 
L 96.872727 66.868607 
L 98.196343 67.92 
L 99.127273 68.565279 
L 100.561183 69.6 
L 101.381818 70.130214 
L 103.107978 71.28 
L 103.636364 71.603313 
L 105.807363 72.96 
L 105.890909 73.009222 
L 108.145455 74.363934 
L 108.605011 74.64 
L 110.4 75.688407 
L 111.495669 76.32 
L 112.654545 76.988056 
L 114.45578 78 
L 114.909091 78.262413 
L 117.163636 79.520279 
L 117.466722 79.68 
L 119.418182 80.778512 
L 120.541366 81.36 
L 121.672727 82.008476 
L 123.6832 83.04 
L 123.927273 83.184457 
L 126.181818 84.34443 
L 127.068256 84.72 
L 128.436364 85.42189 
L 130.690909 86.306846 
L 131.030745 86.4 
L 132.945455 87.07037 
L 135.2 87.508972 
L 137.454545 87.637115 
L 139.709091 87.514069 
L 141.963636 87.203954 
L 144.218182 86.768116 
L 145.836752 86.4 
L 146.472727 86.289631 
L 148.727273 85.862467 
L 150.981818 85.436984 
L 153.236364 85.037598 
L 155.265586 84.72 
L 155.490909 84.690336 
L 157.745455 84.44669 
L 160 84.270476 
L 162.254545 84.176763 
L 164.509091 84.182077 
L 166.763636 84.306151 
L 169.018182 84.574377 
L 169.794531 84.72 
L 171.272727 85.080597 
L 173.527273 85.899542 
L 174.530454 86.4 
L 175.781818 87.311143 
L 176.606082 88.08 
L 177.703184 89.76 
L 178.036364 90.698093 
L 178.264325 91.44 
L 178.493244 93.12 
L 178.520176 94.8 
L 178.421426 96.48 
L 178.251016 98.16 
L 178.047911 99.84 
L 178.036364 99.931357 
L 177.828166 101.52 
L 177.621993 103.2 
L 177.442805 104.88 
L 177.297638 106.56 
L 177.189497 108.24 
L 177.119182 109.92 
L 177.087329 111.6 
L 177.096655 113.28 
L 177.154454 114.96 
L 177.27537 116.64 
L 177.484452 118.32 
L 177.820352 120 
L 178.036364 120.723259 
L 178.307641 121.68 
L 178.995031 123.36 
L 179.976298 125.04 
L 180.290909 125.445284 
L 181.251973 126.72 
L 182.545455 128.049259 
L 182.886193 128.4 
L 184.8 130.018948 
L 184.873679 130.08 
L 187.054545 131.635856 
L 187.235406 131.76 
L 189.309091 133.034251 
L 190.005045 133.44 
L 191.563636 134.281636 
L 193.217148 135.12 
L 193.818182 135.41101 
L 196.072727 136.418995 
L 197.017655 136.8 
L 198.327273 137.323302 
L 200.581818 138.126367 
L 201.736509 138.48 
L 202.836364 138.825156 
L 205.090909 139.413896 
L 207.345455 139.888951 
L 209.113684 140.16 
L 209.6 140.239378 
L 211.854545 140.45458 
L 214.109091 140.521122 
L 216.363636 140.423518 
L 218.496195 140.16 
L 218.618182 140.143758 
L 220.872727 139.665445 
L 223.127273 138.960863 
L 224.310454 138.48 
L 225.381818 138.001206 
L 227.557141 136.8 
L 227.636364 136.751313 
L 229.890909 135.16129 
L 229.943463 135.12 
L 231.861031 133.44 
L 232.145455 133.156411 
L 233.468356 131.76 
L 234.4 130.622806 
L 234.832044 130.08 
L 236.01487 128.4 
L 236.654545 127.347656 
L 237.037023 126.72 
L 237.936982 125.04 
L 238.698666 123.36 
L 238.909091 122.823398 
L 239.373029 121.68 
L 239.949278 120 
L 240.422836 118.32 
L 240.802486 116.64 
L 241.094849 114.96 
L 241.163636 114.414429 
L 241.317269 113.28 
L 241.459568 111.6 
L 241.517677 109.92 
L 241.492284 108.24 
L 241.382809 106.56 
L 241.187469 104.88 
L 241.163636 104.736989 
L 240.924618 103.2 
L 240.57841 101.52 
L 240.142087 99.84 
L 239.60984 98.16 
L 238.974924 96.48 
L 238.909091 96.326052 
L 238.278981 94.8 
L 237.478308 93.12 
L 236.654545 91.604781 
L 236.566428 91.44 
L 235.590046 89.76 
L 234.492596 88.08 
L 234.4 87.945955 
L 233.331589 86.4 
L 232.145455 84.826454 
L 232.06435 84.72 
L 230.747661 83.04 
L 229.890909 81.994668 
L 229.363511 81.36 
L 227.950904 79.68 
L 227.636364 79.302511 
L 226.544467 78 
L 225.381818 76.586694 
L 225.162525 76.32 
L 223.862677 74.64 
L 223.127273 73.628188 
L 222.654062 72.96 
L 221.568614 71.28 
L 220.872727 70.097415 
L 220.595459 69.6 
L 219.751055 67.92 
L 218.98324 66.24 
L 218.618182 65.385139 
L 218.293628 64.56 
L 217.662455 62.88 
L 217.039648 61.2 
L 216.40073 59.52 
L 216.363636 59.427377 
L 215.780436 57.84 
L 215.111615 56.16 
L 214.369979 54.48 
L 214.109091 53.945789 
L 213.588527 52.8 
L 212.728709 51.12 
L 211.854545 49.622488 
L 211.753927 49.44 
L 210.725853 47.76 
L 209.6 46.164374 
L 209.542753 46.08 
L 208.288933 44.4 
L 207.345455 43.286998 
L 206.874176 42.72 
L 205.318128 41.04 
L 205.090909 40.814174 
L 203.626682 39.36 
L 202.836364 38.646311 
L 201.751121 37.68 
L 200.581818 36.720076 
L 199.679989 36 
L 198.327273 34.989796 
L 197.39217 34.32 
L 196.072727 33.423076 
L 194.854489 32.64 
L 193.818182 31.998476 
L 192.018286 30.96 
L 191.563636 30.703646 
L 189.309091 29.51319 
L 188.833734 29.28 
L 187.054545 28.410695 
L 185.205965 27.6 
L 184.8 27.420073 
L 182.545455 26.489702 
L 180.992228 25.92 
M 99.127273 150.30205 
L 101.381818 150.73742 
L 103.636364 150.90952 
L 105.890909 150.885357 
L 108.145455 150.709656 
L 110.4 150.412918 
L 111.327817 150.24 
L 112.654545 150.014589 
L 114.909091 149.534039 
L 117.163636 148.98485 
L 118.696105 148.56 
L 119.418182 148.37206 
L 121.672727 147.701567 
L 123.927273 146.985314 
L 124.225389 146.88 
L 126.181818 146.210286 
L 128.436364 145.396784 
L 128.942849 145.2 
L 130.690909 144.522378 
L 132.945455 143.611611 
L 133.159932 143.52 
L 135.2 142.623557 
L 136.933221 141.84 
L 137.454545 141.590663 
L 139.709091 140.476631 
L 140.338786 140.16 
L 141.963636 139.265743 
L 143.383615 138.48 
L 144.218182 137.957858 
L 146.079344 136.8 
L 146.472727 136.513139 
L 148.424155 135.12 
L 148.727273 134.855726 
L 150.420858 133.44 
L 150.981818 132.839037 
L 152.061473 131.76 
L 153.236364 130.163361 
L 153.304534 130.08 
L 154.218441 128.4 
L 154.729253 126.72 
L 154.878807 125.04 
L 154.707557 123.36 
L 154.254453 121.68 
L 153.55639 120 
L 153.236364 119.390032 
L 152.710963 118.32 
L 151.746897 116.64 
L 150.981818 115.44456 
L 150.678034 114.96 
L 149.564178 113.28 
L 148.727273 112.087507 
L 148.375009 111.6 
L 147.128815 109.92 
L 146.472727 109.062781 
L 145.785141 108.24 
L 144.3354 106.56 
L 144.218182 106.424327 
L 142.646917 104.88 
L 141.963636 104.216952 
L 140.599553 103.2 
L 139.709091 102.52578 
L 137.65155 101.52 
L 137.454545 101.417981 
L 135.2 100.88957 
L 132.945455 101.019233 
L 131.47528 101.52 
L 130.690909 101.750121 
L 128.436364 102.978097 
L 128.158418 103.2 
L 126.181818 104.618119 
L 125.904237 104.88 
L 123.954318 106.56 
L 123.927273 106.58142 
L 122.223353 108.24 
L 121.672727 108.73504 
L 120.543393 109.92 
L 119.418182 111.014857 
L 118.881717 111.6 
L 117.229533 113.28 
L 117.163636 113.343029 
L 115.604901 114.96 
L 114.909091 115.64407 
L 113.948321 116.64 
L 112.654545 117.926001 
L 112.269249 118.32 
L 110.581036 120 
L 110.4 120.178229 
L 108.88424 121.68 
L 108.145455 122.414235 
L 107.180821 123.36 
L 105.890909 124.650387 
L 105.48882 125.04 
L 103.822325 126.72 
L 103.636364 126.91938 
L 102.184359 128.4 
L 101.381818 129.282652 
L 100.607067 130.08 
L 99.127273 131.753164 
L 99.120712 131.76 
L 97.706822 133.44 
L 96.872727 134.578077 
L 96.433993 135.12 
L 95.305327 136.8 
L 94.618182 138.067537 
L 94.366514 138.48 
L 93.62699 140.16 
L 93.153782 141.84 
L 92.988107 143.52 
L 93.204944 145.2 
L 93.940004 146.88 
L 94.618182 147.714998 
L 95.491445 148.56 
L 96.872727 149.420552 
L 98.921259 150.24 
L 99.127273 150.30205 
z
" clip-path="url(#p56b4526085)" style="fill: none; stroke: #9aff5d"/>
    <path d="M 130.255982 25.92 
L 128.436364 26.2759 
L 126.181818 26.790783 
L 123.927273 27.392363 
L 123.231021 27.6 
L 121.672727 28.047841 
L 119.418182 28.78638 
L 118.079749 29.28 
L 117.163636 29.612739 
L 114.909091 30.523875 
L 113.934105 30.96 
L 112.654545 31.536668 
L 110.467132 32.64 
L 110.4 32.674745 
L 108.145455 33.925148 
L 107.491234 34.32 
L 105.890909 35.337113 
L 104.919544 36 
L 103.636364 36.942523 
L 102.686248 37.68 
L 101.381818 38.796839 
L 100.749365 39.36 
L 99.127273 40.999013 
L 99.087637 41.04 
L 97.639524 42.72 
L 96.872727 43.795467 
L 96.44098 44.4 
L 95.448989 46.08 
L 94.695548 47.76 
L 94.618182 47.993808 
L 94.121485 49.44 
L 93.765215 51.12 
L 93.627597 52.8 
L 93.709719 54.48 
L 94.019857 56.16 
L 94.574066 57.84 
L 94.618182 57.930861 
L 95.327077 59.52 
L 96.347399 61.2 
L 96.872727 61.874161 
L 97.607665 62.88 
L 99.127273 64.545031 
L 99.140256 64.56 
L 100.882579 66.24 
L 101.381818 66.650557 
L 102.87439 67.92 
L 103.636364 68.488107 
L 105.096109 69.6 
L 105.890909 70.145151 
L 107.530279 71.28 
L 108.145455 71.673772 
L 110.161157 72.96 
L 110.4 73.104728 
L 112.654545 74.456093 
L 112.969899 74.64 
L 114.909091 75.746994 
L 115.961457 76.32 
L 117.163636 76.979127 
L 119.151576 78 
L 119.418182 78.14203 
L 121.672727 79.255025 
L 122.634952 79.68 
L 123.927273 80.292574 
L 126.181818 81.21772 
L 126.594055 81.36 
L 128.436364 82.066674 
L 130.690909 82.746028 
L 132.01836 83.04 
L 132.945455 83.276452 
L 135.2 83.654293 
L 137.454545 83.846165 
L 139.709091 83.879927 
L 141.963636 83.786258 
L 144.218182 83.595939 
L 146.472727 83.337907 
L 148.712927 83.04 
L 148.727273 83.038389 
L 150.981818 82.763078 
L 153.236364 82.486058 
L 155.490909 82.221716 
L 157.745455 81.982551 
L 160 81.779694 
L 162.254545 81.623495 
L 164.509091 81.524226 
L 166.763636 81.492903 
L 169.018182 81.542349 
L 171.272727 81.68868 
L 173.527273 81.95353 
L 175.781818 82.367702 
L 178.036364 82.97758 
L 178.221185 83.04 
L 180.290909 84.033234 
L 181.364716 84.72 
L 182.545455 85.967511 
L 182.887798 86.4 
L 183.623843 88.08 
L 183.903114 89.76 
L 183.903938 91.44 
L 183.732552 93.12 
L 183.458875 94.8 
L 183.13236 96.48 
L 182.789491 98.16 
L 182.545455 99.384502 
L 182.457871 99.84 
L 182.15755 101.52 
L 181.900911 103.2 
L 181.696627 104.88 
L 181.549392 106.56 
L 181.461164 108.24 
L 181.432602 109.92 
L 181.464691 111.6 
L 181.560507 113.28 
L 181.727072 114.96 
L 181.977254 116.64 
L 182.331615 118.32 
L 182.545455 119.071876 
L 182.814602 120 
L 183.460473 121.68 
L 184.318314 123.36 
L 184.8 124.099022 
L 185.441826 125.04 
L 186.873714 126.72 
L 187.054545 126.896354 
L 188.695647 128.4 
L 189.309091 128.880971 
L 190.968833 130.08 
L 191.563636 130.46207 
L 193.792331 131.76 
L 193.818182 131.773844 
L 196.072727 132.847312 
L 197.51102 133.44 
L 198.327273 133.762414 
L 200.581818 134.508487 
L 202.836364 135.111869 
L 202.878695 135.12 
L 205.090909 135.546566 
L 207.345455 135.825995 
L 209.6 135.937664 
L 211.854545 135.867337 
L 214.109091 135.598407 
L 216.324423 135.12 
L 216.363636 135.11071 
L 218.618182 134.36711 
L 220.686001 133.44 
L 220.872727 133.346785 
L 223.127273 131.987127 
L 223.450174 131.76 
L 225.381818 130.221677 
L 225.541288 130.08 
L 227.220603 128.4 
L 227.636364 127.921587 
L 228.618353 126.72 
L 229.790459 125.04 
L 229.890909 124.875666 
L 230.792984 123.36 
L 231.634949 121.68 
L 232.145455 120.466553 
L 232.34204 120 
L 232.937346 118.32 
L 233.414048 116.64 
L 233.781067 114.96 
L 234.044824 113.28 
L 234.209649 111.6 
L 234.278067 109.92 
L 234.250995 108.24 
L 234.127878 106.56 
L 233.906778 104.88 
L 233.58445 103.2 
L 233.156402 101.52 
L 232.616986 99.84 
L 232.145455 98.624747 
L 231.966498 98.16 
L 231.213037 96.48 
L 230.331486 94.8 
L 229.890909 94.054366 
L 229.32869 93.12 
L 228.19947 91.44 
L 227.636364 90.674846 
L 226.937716 89.76 
L 225.546823 88.08 
L 225.381818 87.889299 
L 224.027418 86.4 
L 223.127273 85.449299 
L 222.394524 84.72 
L 220.872727 83.21837 
L 220.680007 83.04 
L 218.920566 81.36 
L 218.618182 81.056899 
L 217.18359 79.68 
L 216.363636 78.818878 
L 215.562977 78 
L 214.142402 76.32 
L 214.109091 76.273959 
L 212.953028 74.64 
L 212.019285 72.96 
L 211.854545 72.592695 
L 211.304098 71.28 
L 210.760391 69.6 
L 210.33008 67.92 
L 209.965077 66.24 
L 209.625938 64.56 
L 209.6 64.437361 
L 209.301121 62.88 
L 208.950501 61.2 
L 208.550648 59.52 
L 208.082209 57.84 
L 207.526998 56.16 
L 207.345455 55.694326 
L 206.904645 54.48 
L 206.184696 52.8 
L 205.333705 51.12 
L 205.090909 50.702454 
L 204.389468 49.44 
L 203.301414 47.76 
L 202.836364 47.128217 
L 202.083789 46.08 
L 200.695142 44.4 
L 200.581818 44.27551 
L 199.170696 42.72 
L 198.327273 41.892725 
L 197.448684 41.04 
L 196.072727 39.833086 
L 195.519773 39.36 
L 193.818182 38.023049 
L 193.363928 37.68 
L 191.563636 36.411067 
L 190.947704 36 
L 189.309091 34.962697 
L 188.22032 34.32 
L 187.054545 33.656753 
L 185.107868 32.64 
L 184.8 32.482559 
L 182.545455 31.404245 
L 181.519732 30.96 
L 180.290909 30.428384 
L 178.036364 29.550013 
L 177.272495 29.28 
L 175.781818 28.743007 
L 173.527273 28.021759 
L 172.033237 27.6 
L 171.272727 27.376798 
L 169.018182 26.784003 
L 166.763636 26.274877 
L 164.933971 25.92 
M 108.145455 147.167728 
L 110.4 147.273263 
L 112.654545 147.196357 
L 114.909091 146.976087 
L 115.510511 146.88 
L 117.163636 146.627909 
L 119.418182 146.178016 
L 121.672727 145.646695 
L 123.314738 145.2 
L 123.927273 145.035775 
L 126.181818 144.337793 
L 128.436364 143.586361 
L 128.615431 143.52 
L 130.690909 142.735422 
L 132.941907 141.84 
L 132.945455 141.838519 
L 135.2 140.819866 
L 136.603256 140.16 
L 137.454545 139.725274 
L 139.709091 138.529297 
L 139.799237 138.48 
L 141.963636 137.146267 
L 142.518638 136.8 
L 144.218182 135.560175 
L 144.82197 135.12 
L 146.472727 133.651568 
L 146.714997 133.44 
L 148.206111 131.76 
L 148.727273 130.947749 
L 149.308015 130.08 
L 150.026408 128.4 
L 150.377219 126.72 
L 150.394509 125.04 
L 150.114394 123.36 
L 149.573754 121.68 
L 148.808689 120 
L 148.727273 119.851531 
L 147.869818 118.32 
L 146.775538 116.64 
L 146.472727 116.211113 
L 145.523403 114.96 
L 144.218182 113.369818 
L 144.134173 113.28 
L 142.504825 111.6 
L 141.963636 111.063642 
L 140.526526 109.92 
L 139.709091 109.28781 
L 137.784874 108.24 
L 137.454545 108.062595 
L 135.2 107.375745 
L 132.945455 107.236196 
L 130.690909 107.607316 
L 129.02953 108.24 
L 128.436364 108.447127 
L 126.181818 109.675292 
L 125.846966 109.92 
L 123.927273 111.2188 
L 123.471282 111.6 
L 121.672727 113.000539 
L 121.365966 113.28 
L 119.418182 114.945451 
L 119.403018 114.96 
L 117.561721 116.64 
L 117.163636 116.988384 
L 115.761865 118.32 
L 114.909091 119.107765 
L 113.993243 120 
L 112.654545 121.287864 
L 112.258246 121.68 
L 110.570653 123.36 
L 110.4 123.534782 
L 108.937609 125.04 
L 108.145455 125.890116 
L 107.359982 126.72 
L 105.890909 128.369104 
L 105.862418 128.4 
L 104.459639 130.08 
L 103.636364 131.177873 
L 103.175046 131.76 
L 102.034462 133.44 
L 101.381818 134.599709 
L 101.06567 135.12 
L 100.300814 136.8 
L 99.78845 138.48 
L 99.580898 140.16 
L 99.765483 141.84 
L 100.495648 143.52 
L 101.381818 144.548358 
L 102.125425 145.2 
L 103.636364 146.04667 
L 105.890909 146.815274 
L 106.226308 146.88 
L 108.145455 147.167728 
z
" clip-path="url(#p56b4526085)" style="fill: none; stroke: #b7ff40"/>
    <path d="M 110.4 143.657355 
L 112.654545 144.047652 
L 114.909091 144.164958 
L 117.163636 144.078361 
L 119.418182 143.83342 
L 121.289271 143.52 
L 121.672727 143.455455 
L 123.927273 142.936144 
L 126.181818 142.326017 
L 127.744108 141.84 
L 128.436364 141.615809 
L 130.690909 140.783407 
L 132.243924 140.16 
L 132.945455 139.856521 
L 135.2 138.795395 
L 135.827673 138.48 
L 137.454545 137.565229 
L 138.750822 136.8 
L 139.709091 136.142064 
L 141.139822 135.12 
L 141.963636 134.403594 
L 143.0431 133.44 
L 144.218182 132.088557 
L 144.501567 131.76 
L 145.523682 130.08 
L 146.152228 128.4 
L 146.407165 126.72 
L 146.315095 125.04 
L 145.907497 123.36 
L 145.218589 121.68 
L 144.282974 120 
L 144.218182 119.901561 
L 143.054602 118.32 
L 141.963636 117.034209 
L 141.563698 116.64 
L 139.709091 114.975722 
L 139.685947 114.96 
L 137.454545 113.533229 
L 136.826333 113.28 
L 135.2 112.64733 
L 132.945455 112.292366 
L 130.690909 112.428964 
L 128.436364 113.013223 
L 127.842636 113.28 
L 126.181818 113.978362 
L 124.491565 114.96 
L 123.927273 115.2703 
L 121.944037 116.64 
L 121.672727 116.819807 
L 119.754204 118.32 
L 119.418182 118.575959 
L 117.759198 120 
L 117.163636 120.506277 
L 115.893014 121.68 
L 114.909091 122.596148 
L 114.13094 123.36 
L 112.654545 124.848267 
L 112.469348 125.04 
L 110.938501 126.72 
L 110.4 127.358655 
L 109.523054 128.4 
L 108.241433 130.08 
L 108.145455 130.229081 
L 107.135799 131.76 
L 106.215709 133.44 
L 105.890909 134.255475 
L 105.528902 135.12 
L 105.131632 136.8 
L 105.09566 138.48 
L 105.550212 140.16 
L 105.890909 140.70525 
L 106.81896 141.84 
L 108.145455 142.750835 
L 109.942172 143.52 
L 110.4 143.657355 
z
M 200.581818 130.4718 
L 202.836364 131.019151 
L 205.090909 131.355289 
L 207.345455 131.471387 
L 209.6 131.356166 
L 211.854545 130.994896 
L 214.109091 130.368361 
L 214.850251 130.08 
L 216.363636 129.421257 
L 218.168348 128.4 
L 218.618182 128.11164 
L 220.430319 126.72 
L 220.872727 126.329437 
L 222.159095 125.04 
L 223.127273 123.90473 
L 223.552827 123.36 
L 224.68213 121.68 
L 225.381818 120.433001 
L 225.613009 120 
L 226.366211 118.32 
L 226.968213 116.64 
L 227.431391 114.96 
L 227.636364 113.932125 
L 227.765388 113.28 
L 227.975843 111.6 
L 228.064852 109.92 
L 228.033718 108.24 
L 227.881857 106.56 
L 227.636364 105.057991 
L 227.60717 104.88 
L 227.208311 103.2 
L 226.678237 101.52 
L 226.010451 99.84 
L 225.381818 98.532015 
L 225.195683 98.16 
L 224.220451 96.48 
L 223.127273 94.861294 
L 223.082975 94.8 
L 221.742513 93.12 
L 220.872727 92.134709 
L 220.199387 91.44 
L 218.618182 89.919193 
L 218.43206 89.76 
L 216.396996 88.08 
L 216.363636 88.052785 
L 214.109091 86.433759 
L 214.053956 86.4 
L 211.854545 84.98921 
L 211.357132 84.72 
L 209.6 83.666277 
L 208.372802 83.04 
L 207.345455 82.412035 
L 205.400859 81.36 
L 205.090909 81.132249 
L 203.021573 79.68 
L 202.836364 79.448835 
L 201.735885 78 
L 201.36723 76.32 
L 201.410066 74.64 
L 201.624716 72.96 
L 201.894717 71.28 
L 202.158381 69.6 
L 202.380843 67.92 
L 202.541141 66.24 
L 202.625652 64.56 
L 202.624499 62.88 
L 202.529437 61.2 
L 202.332517 59.52 
L 202.025167 57.84 
L 201.597479 56.16 
L 201.037595 54.48 
L 200.581818 53.390653 
L 200.34762 52.8 
L 199.535604 51.12 
L 198.552142 49.44 
L 198.327273 49.108533 
L 197.433011 47.76 
L 196.117911 46.08 
L 196.072727 46.0284 
L 194.646557 44.4 
L 193.818182 43.570073 
L 192.956843 42.72 
L 191.563636 41.491376 
L 191.036065 41.04 
L 189.309091 39.695381 
L 188.858129 39.36 
L 187.054545 38.117091 
L 186.379861 37.68 
L 184.8 36.714641 
L 183.535484 36 
L 182.545455 35.463066 
L 180.290909 34.348694 
L 180.228619 34.32 
L 178.036364 33.330134 
L 176.309607 32.64 
L 175.781818 32.429775 
L 173.527273 31.609445 
L 171.478669 30.96 
L 171.272727 30.893563 
L 169.018182 30.23294 
L 166.763636 29.665292 
L 164.984249 29.28 
L 164.509091 29.172591 
L 162.254545 28.728649 
L 160 28.359934 
L 157.745455 28.060674 
L 155.490909 27.826262 
L 153.236364 27.653146 
L 152.194785 27.6 
L 150.981818 27.532705 
L 148.727273 27.469691 
L 146.472727 27.468477 
L 144.218182 27.529141 
L 142.919846 27.6 
L 141.963636 27.647978 
L 139.709091 27.81954 
L 137.454545 28.052987 
L 135.2 28.352149 
L 132.945455 28.722002 
L 130.690909 29.168814 
L 130.20374 29.28 
L 128.436364 29.666653 
L 126.181818 30.242256 
L 123.927273 30.915111 
L 123.790865 30.96 
L 121.672727 31.646717 
L 119.418182 32.492136 
L 119.057798 32.64 
L 117.163636 33.423686 
L 115.25258 34.32 
L 114.909091 34.485556 
L 112.654545 35.670436 
L 112.07924 36 
L 110.4 37.015292 
L 109.38614 37.68 
L 108.145455 38.558424 
L 107.083918 39.36 
L 105.890909 40.358416 
L 105.114586 41.04 
L 103.636364 42.52273 
L 103.44578 42.72 
L 102.027831 44.4 
L 101.381818 45.331855 
L 100.866479 46.08 
L 99.935964 47.76 
L 99.251018 49.44 
L 99.127273 49.882713 
L 98.771306 51.12 
L 98.516776 52.8 
L 98.492697 54.48 
L 98.702353 56.16 
L 99.127273 57.733695 
L 99.153843 57.84 
L 99.816817 59.52 
L 100.741867 61.2 
L 101.381818 62.093464 
L 101.918503 62.88 
L 103.350589 64.56 
L 103.636364 64.840159 
L 105.024122 66.24 
L 105.890909 66.986633 
L 106.959117 67.92 
L 108.145455 68.83155 
L 109.145764 69.6 
L 110.4 70.471349 
L 111.581761 71.28 
L 112.654545 71.962229 
L 114.27268 72.96 
L 114.909091 73.334736 
L 117.163636 74.601699 
L 117.235697 74.64 
L 119.418182 75.781181 
L 120.543439 76.32 
L 121.672727 76.867137 
L 123.927273 77.84637 
L 124.328881 78 
L 126.181818 78.739549 
L 128.436364 79.492696 
L 129.124292 79.68 
L 130.690909 80.138999 
L 132.945455 80.642531 
L 135.2 80.992811 
L 137.454545 81.204537 
L 139.709091 81.295604 
L 141.963636 81.28552 
L 144.218182 81.194051 
L 146.472727 81.040177 
L 148.727273 80.841392 
L 150.981818 80.613314 
L 153.236364 80.369542 
L 155.490909 80.121702 
L 157.745455 79.87961 
L 159.724051 79.68 
L 160 79.653902 
L 162.254545 79.464091 
L 164.509091 79.299093 
L 166.763636 79.164004 
L 169.018182 79.063506 
L 171.272727 79.00212 
L 173.527273 78.984495 
L 175.781818 79.015751 
L 178.036364 79.101938 
L 180.290909 79.250741 
L 182.545455 79.472652 
L 184.138471 79.68 
L 184.8 79.800003 
L 187.054545 80.310704 
L 189.309091 81.06887 
L 190.012505 81.36 
L 191.563636 82.907639 
L 191.66912 83.04 
L 192.005087 84.72 
L 191.738257 86.4 
L 191.563636 86.878754 
L 191.245799 88.08 
L 190.643686 89.76 
L 189.966743 91.44 
L 189.309091 92.986161 
L 189.261452 93.12 
L 188.616777 94.8 
L 187.993603 96.48 
L 187.412715 98.16 
L 187.054545 99.301647 
L 186.901177 99.84 
L 186.479246 101.52 
L 186.133433 103.2 
L 185.869202 104.88 
L 185.689225 106.56 
L 185.594297 108.24 
L 185.584535 109.92 
L 185.660784 111.6 
L 185.826148 113.28 
L 186.087546 114.96 
L 186.457188 116.64 
L 186.953823 118.32 
L 187.054545 118.58781 
L 187.630163 120 
L 188.50292 121.68 
L 189.309091 122.920329 
L 189.628653 123.36 
L 191.102727 125.04 
L 191.563636 125.482809 
L 193.03942 126.72 
L 193.818182 127.288079 
L 195.61426 128.4 
L 196.072727 128.655491 
L 198.327273 129.691007 
L 199.415735 130.08 
L 200.581818 130.4718 
z
" clip-path="url(#p56b4526085)" style="fill: none; stroke: #d4ff23"/>
    <path d="M 114.909091 140.690545 
L 117.163636 141.052819 
L 119.418182 141.101228 
L 121.672727 140.92023 
L 123.927273 140.563473 
L 125.729016 140.16 
L 126.181818 140.051712 
L 128.436364 139.349999 
L 130.690909 138.546805 
L 130.851781 138.48 
L 132.945455 137.513145 
L 134.354577 136.8 
L 135.2 136.30459 
L 137.055188 135.12 
L 137.454545 134.80997 
L 139.09206 133.44 
L 139.709091 132.77168 
L 140.589624 131.76 
L 141.610422 130.08 
L 141.963636 129.058069 
L 142.181123 128.4 
L 142.326085 126.72 
L 142.091421 125.04 
L 141.963636 124.663667 
L 141.453837 123.36 
L 140.435104 121.68 
L 139.709091 120.761442 
L 138.949679 120 
L 137.454545 118.747959 
L 136.715728 118.32 
L 135.2 117.53776 
L 132.945455 116.931314 
L 130.690909 116.84764 
L 128.436364 117.225725 
L 126.181818 118.004577 
L 125.56556 118.32 
L 123.927273 119.139226 
L 122.580578 120 
L 121.672727 120.577706 
L 120.217143 121.68 
L 119.418182 122.294641 
L 118.193715 123.36 
L 117.163636 124.290128 
L 116.399748 125.04 
L 114.909091 126.593266 
L 114.793513 126.72 
L 113.424528 128.4 
L 112.654545 129.477696 
L 112.232849 130.08 
L 111.290682 131.76 
L 110.597602 133.44 
L 110.4 134.404975 
L 110.251272 135.12 
L 110.350052 136.8 
L 110.4 136.93376 
L 111.163634 138.48 
L 112.654545 139.780807 
L 113.358585 140.16 
L 114.909091 140.690545 
z
M 200.581818 125.577308 
L 202.836364 126.182741 
L 205.090909 126.463807 
L 207.345455 126.42009 
L 209.6 126.044274 
L 211.854545 125.321606 
L 212.457529 125.04 
L 214.109091 124.159429 
L 215.254372 123.36 
L 216.363636 122.459168 
L 217.159295 121.68 
L 218.599756 120 
L 218.618182 119.974347 
L 219.667074 118.32 
L 220.515801 116.64 
L 220.872727 115.728814 
L 221.150893 114.96 
L 221.593522 113.28 
L 221.872684 111.6 
L 221.993395 109.92 
L 221.957748 108.24 
L 221.765294 106.56 
L 221.413328 104.88 
L 220.897159 103.2 
L 220.872727 103.139046 
L 220.171971 101.52 
L 219.257343 99.84 
L 218.618182 98.861347 
L 218.103969 98.16 
L 216.672661 96.48 
L 216.363636 96.157027 
L 214.841801 94.8 
L 214.109091 94.203192 
L 212.470898 93.12 
L 211.854545 92.733242 
L 209.6 91.65481 
L 208.931873 91.44 
L 207.345455 90.925636 
L 205.090909 90.552337 
L 202.836364 90.572229 
L 200.581818 91.05974 
L 199.751836 91.44 
L 198.327273 92.114749 
L 197.009685 93.12 
L 196.072727 93.879885 
L 195.253162 94.8 
L 193.886037 96.48 
L 193.818182 96.571127 
L 192.874463 98.16 
L 192.011247 99.84 
L 191.563636 100.869751 
L 191.322962 101.52 
L 190.815941 103.2 
L 190.435795 104.88 
L 190.182748 106.56 
L 190.056007 108.24 
L 190.054756 109.92 
L 190.179453 111.6 
L 190.433275 113.28 
L 190.823526 114.96 
L 191.362858 116.64 
L 191.563636 117.125608 
L 192.136153 118.32 
L 193.150422 120 
L 193.818182 120.902492 
L 194.516109 121.68 
L 196.072727 123.134787 
L 196.381188 123.36 
L 198.327273 124.596343 
L 199.287544 125.04 
L 200.581818 125.577308 
z
M 132.945455 78.421813 
L 135.2 78.800151 
L 137.454545 79.049723 
L 139.709091 79.185387 
L 141.963636 79.223301 
L 144.218182 79.179872 
L 146.472727 79.070922 
L 148.727273 78.911094 
L 150.981818 78.713476 
L 153.236364 78.489407 
L 155.490909 78.248418 
L 157.730002 78 
L 157.745455 77.998367 
L 160 77.760716 
L 162.254545 77.524215 
L 164.509091 77.291788 
L 166.763636 77.064895 
L 169.018182 76.843416 
L 171.272727 76.625396 
L 173.527273 76.406562 
L 174.43822 76.32 
L 175.781818 76.186254 
L 178.036364 75.952317 
L 180.290909 75.683875 
L 182.545455 75.354058 
L 184.8 74.919282 
L 185.929127 74.64 
L 187.054545 74.322988 
L 189.309091 73.461982 
L 190.275739 72.96 
L 191.563636 72.147411 
L 192.632023 71.28 
L 193.818182 70.037806 
L 194.171249 69.6 
L 195.257369 67.92 
L 196.024168 66.24 
L 196.072727 66.09615 
L 196.566327 64.56 
L 196.905709 62.88 
L 197.063922 61.2 
L 197.054054 59.52 
L 196.881831 57.84 
L 196.54715 56.16 
L 196.072727 54.573189 
L 196.04635 54.48 
L 195.403843 52.8 
L 194.580845 51.12 
L 193.818182 49.856862 
L 193.57159 49.44 
L 192.389019 47.76 
L 191.563636 46.765331 
L 190.992532 46.08 
L 189.368725 44.4 
L 189.309091 44.344598 
L 187.509058 42.72 
L 187.054545 42.352037 
L 185.359108 41.04 
L 184.8 40.644072 
L 182.871344 39.36 
L 182.545455 39.157588 
L 180.290909 37.85037 
L 179.973509 37.68 
L 178.036364 36.687813 
L 176.543159 36 
L 175.781818 35.659202 
L 173.527273 34.742686 
L 172.359959 34.32 
L 171.272727 33.928867 
L 169.018182 33.207308 
L 166.964666 32.64 
L 166.763636 32.583605 
L 164.509091 32.021251 
L 162.254545 31.546664 
L 160 31.152355 
L 158.659185 30.96 
L 157.745455 30.82264 
L 155.490909 30.552987 
L 153.236364 30.353754 
L 150.981818 30.221996 
L 148.727273 30.15581 
L 146.472727 30.154301 
L 144.218182 30.217559 
L 141.963636 30.346678 
L 139.709091 30.543792 
L 137.454545 30.812133 
L 136.47131 30.96 
L 135.2 31.142425 
L 132.945455 31.538122 
L 130.690909 32.016335 
L 128.436364 32.585442 
L 128.244835 32.64 
L 126.181818 33.219581 
L 123.927273 33.957594 
L 122.944766 34.32 
L 121.672727 34.79392 
L 119.418182 35.745928 
L 118.871702 36 
L 117.163636 36.822903 
L 115.570763 37.68 
L 114.909091 38.057051 
L 112.824672 39.36 
L 112.654545 39.475386 
L 110.514332 41.04 
L 110.4 41.133245 
L 108.563603 42.72 
L 108.145455 43.136607 
L 106.927977 44.4 
L 105.890909 45.693292 
L 105.588072 46.08 
L 104.501441 47.76 
L 103.683844 49.44 
L 103.636364 49.575006 
L 103.087113 51.12 
L 102.735041 52.8 
L 102.623168 54.48 
L 102.75105 56.16 
L 103.12454 57.84 
L 103.636364 59.202816 
L 103.749265 59.52 
L 104.606143 61.2 
L 105.743609 62.88 
L 105.890909 63.055196 
L 107.125608 64.56 
L 108.145455 65.585884 
L 108.790186 66.24 
L 110.4 67.63495 
L 110.731549 67.92 
L 112.654545 69.376659 
L 112.95686 69.6 
L 114.909091 70.908285 
L 115.488333 71.28 
L 117.163636 72.282936 
L 118.368513 72.96 
L 119.418182 73.525609 
L 121.671446 74.64 
L 121.672727 74.640625 
L 123.927273 75.645883 
L 125.665037 76.32 
L 126.181818 76.523502 
L 128.436364 77.288607 
L 130.690909 77.90947 
L 131.104363 78 
L 132.945455 78.421813 
z
" clip-path="url(#p56b4526085)" style="fill: none; stroke: #f1fc06"/>
    <path d="M 119.418182 137.323583 
L 121.672727 137.613419 
L 123.927273 137.512556 
L 126.181818 137.136535 
L 127.434414 136.8 
L 128.436364 136.488391 
L 130.690909 135.564108 
L 131.589065 135.12 
L 132.945455 134.302151 
L 134.182314 133.44 
L 135.2 132.510783 
L 135.924686 131.76 
L 137.007429 130.08 
L 137.454545 128.669851 
L 137.530513 128.4 
L 137.484811 126.72 
L 137.454545 126.622755 
L 136.806217 125.04 
L 135.459872 123.36 
L 135.2 123.130342 
L 132.945455 121.896519 
L 131.933711 121.68 
L 130.690909 121.463818 
L 128.436364 121.611195 
L 128.193917 121.68 
L 126.181818 122.271682 
L 123.927273 123.329366 
L 123.879238 123.36 
L 121.672727 124.845993 
L 121.433383 125.04 
L 119.536205 126.72 
L 119.418182 126.841595 
L 118.089023 128.4 
L 117.163636 129.710762 
L 116.923516 130.08 
L 116.195523 131.76 
L 115.898437 133.44 
L 116.261038 135.12 
L 117.163636 136.225948 
L 117.989668 136.8 
L 119.418182 137.323583 
z
M 200.581818 118.558716 
L 202.836364 119.528986 
L 205.090909 119.872426 
L 207.345455 119.61153 
L 209.6 118.748308 
L 210.267789 118.32 
L 211.854545 117.07053 
L 212.252115 116.64 
L 213.464228 114.96 
L 214.109091 113.722192 
L 214.296362 113.28 
L 214.753436 111.6 
L 214.957122 109.92 
L 214.912002 108.24 
L 214.618334 106.56 
L 214.109091 104.990927 
L 214.065329 104.88 
L 213.098073 103.2 
L 211.854545 101.575075 
L 211.798073 101.52 
L 209.67743 99.84 
L 209.6 99.787757 
L 207.345455 98.821602 
L 205.090909 98.448277 
L 202.836364 98.69772 
L 200.581818 99.630704 
L 200.297567 99.84 
L 198.368549 101.52 
L 198.327273 101.564549 
L 197.277746 103.2 
L 196.47666 104.88 
L 196.072727 106.157012 
L 195.973814 106.56 
L 195.765901 108.24 
L 195.763121 109.92 
L 195.964941 111.6 
L 196.072727 112.044949 
L 196.455242 113.28 
L 197.246344 114.96 
L 198.325247 116.64 
L 198.327273 116.642498 
L 200.249602 118.32 
L 200.581818 118.558716 
z
M 132.945455 76.420739 
L 135.2 76.82855 
L 137.454545 77.11242 
L 139.709091 77.285284 
L 141.963636 77.361125 
L 144.218182 77.354126 
L 146.472727 77.277961 
L 148.727273 77.14528 
L 150.981818 76.967342 
L 153.236364 76.7538 
L 155.490909 76.512569 
L 157.150134 76.32 
L 157.745455 76.252573 
L 160 75.983556 
L 162.254545 75.700193 
L 164.509091 75.403075 
L 166.763636 75.090699 
L 169.018182 74.759096 
L 169.803653 74.64 
L 171.272727 74.405917 
L 173.527273 74.019508 
L 175.781818 73.582183 
L 178.036364 73.071003 
L 178.480915 72.96 
L 180.290909 72.453385 
L 182.545455 71.681772 
L 183.531185 71.28 
L 184.8 70.668887 
L 186.621098 69.6 
L 187.054545 69.284481 
L 188.67768 67.92 
L 189.309091 67.219441 
L 190.107049 66.24 
L 191.102372 64.56 
L 191.563636 63.41437 
L 191.770122 62.88 
L 192.178042 61.2 
L 192.349405 59.52 
L 192.306493 57.84 
L 192.06013 56.16 
L 191.612403 54.48 
L 191.563636 54.35368 
L 190.984107 52.8 
L 190.149651 51.12 
L 189.309091 49.779928 
L 189.097541 49.44 
L 187.836299 47.76 
L 187.054545 46.882051 
L 186.327081 46.08 
L 184.8 44.631223 
L 184.547471 44.4 
L 182.545455 42.782097 
L 182.464432 42.72 
L 180.290909 41.214538 
L 180.020385 41.04 
L 178.036364 39.857269 
L 177.124093 39.36 
L 175.781818 38.669736 
L 173.636083 37.68 
L 173.527273 37.631707 
L 171.272727 36.712223 
L 169.265105 36 
L 169.018182 35.913726 
L 166.763636 35.205204 
L 164.509091 34.60038 
L 163.291067 34.32 
L 162.254545 34.07841 
L 160 33.633153 
L 157.745455 33.271519 
L 155.490909 32.988041 
L 153.236364 32.778497 
L 150.984778 32.64 
L 150.981818 32.639809 
L 148.727273 32.565658 
L 146.472727 32.563696 
L 144.218182 32.634041 
L 144.123915 32.64 
L 141.963636 32.769816 
L 139.709091 32.97671 
L 137.454545 33.258501 
L 135.2 33.619889 
L 132.945455 34.066992 
L 131.869899 34.32 
L 130.690909 34.594045 
L 128.436364 35.207473 
L 126.181818 35.930379 
L 125.987206 36 
L 123.927273 36.750484 
L 121.725715 37.68 
L 121.672727 37.703265 
L 119.418182 38.791418 
L 118.365794 39.36 
L 117.163636 40.055544 
L 115.616866 41.04 
L 114.909091 41.535364 
L 113.342109 42.72 
L 112.654545 43.309629 
L 111.456311 44.4 
L 110.4 45.532654 
L 109.910448 46.08 
L 108.66611 47.76 
L 108.145455 48.660071 
L 107.701495 49.44 
L 106.998353 51.12 
L 106.557432 52.8 
L 106.36891 54.48 
L 106.429507 56.16 
L 106.742077 57.84 
L 107.315289 59.52 
L 108.145455 61.164992 
L 108.162633 61.2 
L 109.263113 62.88 
L 110.4 64.246275 
L 110.660065 64.56 
L 112.344773 66.24 
L 112.654545 66.504947 
L 114.34261 67.92 
L 114.909091 68.338639 
L 116.683572 69.6 
L 117.163636 69.909917 
L 119.415424 71.28 
L 119.418182 71.281568 
L 121.672727 72.480006 
L 122.673161 72.96 
L 123.927273 73.538831 
L 126.181818 74.456057 
L 126.702628 74.64 
L 128.436364 75.246309 
L 130.690909 75.899336 
L 132.516417 76.32 
L 132.945455 76.420739 
z
" clip-path="url(#p56b4526085)" style="fill: none; stroke: #ffdb00"/>
    <path d="M 135.2 74.982626 
L 137.454545 75.301605 
L 139.709091 75.50933 
L 141.963636 75.618377 
L 144.218182 75.641445 
L 146.472727 75.590749 
L 148.727273 75.477535 
L 150.981818 75.311738 
L 153.236364 75.101732 
L 155.490909 74.854163 
L 157.220066 74.64 
L 157.745455 74.574957 
L 160 74.269886 
L 162.254545 73.935972 
L 164.509091 73.57172 
L 166.763636 73.172977 
L 167.886263 72.96 
L 169.018182 72.731047 
L 171.272727 72.234838 
L 173.527273 71.669278 
L 174.907834 71.28 
L 175.781818 71.002753 
L 178.036364 70.195401 
L 179.458259 69.6 
L 180.290909 69.186979 
L 182.484701 67.92 
L 182.545455 67.87635 
L 184.573806 66.24 
L 184.8 65.998078 
L 186.036841 64.56 
L 187.031715 62.88 
L 187.054545 62.822771 
L 187.6801 61.2 
L 188.023817 59.52 
L 188.101463 57.84 
L 187.934779 56.16 
L 187.532944 54.48 
L 187.054545 53.217046 
L 186.899982 52.8 
L 186.043675 51.12 
L 184.933339 49.44 
L 184.8 49.272864 
L 183.57277 47.76 
L 182.545455 46.702296 
L 181.919741 46.08 
L 180.290909 44.683819 
L 179.941754 44.4 
L 178.036364 43.027059 
L 177.578393 42.72 
L 175.781818 41.624706 
L 174.730644 41.04 
L 173.527273 40.416967 
L 171.272727 39.372917 
L 171.242061 39.36 
L 169.018182 38.46515 
L 166.763636 37.683415 
L 166.75256 37.68 
L 164.509091 37.002491 
L 162.254545 36.427216 
L 160.247732 36 
L 160 35.947063 
L 157.745455 35.544855 
L 155.490909 35.229435 
L 153.236364 34.996155 
L 150.981818 34.841632 
L 148.727273 34.763685 
L 146.472727 34.761296 
L 144.218182 34.834601 
L 141.963636 34.984907 
L 139.709091 35.214749 
L 137.454545 35.527971 
L 135.2 35.929844 
L 134.873483 36 
L 132.945455 36.412733 
L 130.690909 36.99396 
L 128.456271 37.68 
L 128.436364 37.686248 
L 126.181818 38.487047 
L 124.07661 39.36 
L 123.927273 39.425106 
L 121.672727 40.517335 
L 120.711273 41.04 
L 119.418182 41.802713 
L 118.009473 42.72 
L 117.163636 43.335498 
L 115.81301 44.4 
L 114.909091 45.22497 
L 114.028006 46.08 
L 112.654545 47.694942 
L 112.601561 47.76 
L 111.485523 49.44 
L 110.67159 51.12 
L 110.4 51.96402 
L 110.133367 52.8 
L 109.864794 54.48 
L 109.866993 56.16 
L 110.140877 57.84 
L 110.4 58.627723 
L 110.686084 59.52 
L 111.508398 61.2 
L 112.630755 62.88 
L 112.654545 62.908317 
L 114.052713 64.56 
L 114.909091 65.390247 
L 115.809429 66.24 
L 117.163636 67.330226 
L 117.93191 67.92 
L 119.418182 68.926734 
L 120.484562 69.6 
L 121.672727 70.282661 
L 123.583388 71.28 
L 123.927273 71.448163 
L 126.181818 72.438708 
L 127.55591 72.96 
L 128.436364 73.282246 
L 130.690909 73.981526 
L 132.945455 74.543015 
L 133.440815 74.64 
L 135.2 74.982626 
z
" clip-path="url(#p56b4526085)" style="fill: none; stroke: #ffb900"/>
    <path d="M 135.2 73.195694 
L 137.454545 73.554024 
L 139.709091 73.797928 
L 141.963636 73.939103 
L 144.218182 73.989301 
L 146.472727 73.959767 
L 148.727273 73.860786 
L 150.981818 73.701335 
L 153.236364 73.488815 
L 155.490909 73.228846 
L 157.490245 72.96 
L 157.745455 72.924851 
L 160 72.576415 
L 162.254545 72.18443 
L 164.509091 71.74536 
L 166.643227 71.28 
L 166.763636 71.251544 
L 169.018182 70.676236 
L 171.272727 70.018481 
L 172.551807 69.6 
L 173.527273 69.23452 
L 175.781818 68.279731 
L 176.537033 67.92 
L 178.036364 67.055893 
L 179.288662 66.24 
L 180.290909 65.404743 
L 181.213952 64.56 
L 182.543435 62.88 
L 182.545455 62.876341 
L 183.427902 61.2 
L 183.938321 59.52 
L 184.129727 57.84 
L 184.034056 56.16 
L 183.667022 54.48 
L 183.031962 52.8 
L 182.545455 51.894055 
L 182.12798 51.12 
L 180.943692 49.44 
L 180.290909 48.691138 
L 179.451255 47.76 
L 178.036364 46.450435 
L 177.614164 46.08 
L 175.781818 44.690039 
L 175.370249 44.4 
L 173.527273 43.242386 
L 172.613018 42.72 
L 171.272727 42.018751 
L 169.170163 41.04 
L 169.018182 40.973619 
L 166.763636 40.085013 
L 164.616168 39.36 
L 164.509091 39.325156 
L 162.254545 38.680932 
L 160 38.144952 
L 157.745455 37.70924 
L 157.556211 37.68 
L 155.490909 37.361284 
L 153.236364 37.103363 
L 150.981818 36.932354 
L 148.727273 36.845876 
L 146.472727 36.842827 
L 144.218182 36.923376 
L 141.963636 37.088993 
L 139.709091 37.342504 
L 137.506933 37.68 
L 137.454545 37.688033 
L 135.2 38.123075 
L 132.945455 38.661805 
L 130.690909 39.313799 
L 130.551524 39.36 
L 128.436364 40.08865 
L 126.181818 41.003122 
L 126.100219 41.04 
L 123.927273 42.092195 
L 122.782755 42.72 
L 121.672727 43.391146 
L 120.168086 44.4 
L 119.418182 44.973192 
L 118.085889 46.08 
L 117.163636 46.990937 
L 116.433316 47.76 
L 115.15279 49.44 
L 114.909091 49.859208 
L 114.20295 51.12 
L 113.563944 52.8 
L 113.221716 54.48 
L 113.168626 56.16 
L 113.403864 57.84 
L 113.932887 59.52 
L 114.76681 61.2 
L 114.909091 61.409714 
L 115.918757 62.88 
L 117.163636 64.286962 
L 117.413283 64.56 
L 119.288696 66.24 
L 119.418182 66.339294 
L 121.613878 67.92 
L 121.672727 67.957398 
L 123.927273 69.280607 
L 124.533373 69.6 
L 126.181818 70.392143 
L 128.312086 71.28 
L 128.436364 71.328655 
L 130.690909 72.0916 
L 132.945455 72.711494 
L 134.085239 72.96 
L 135.2 73.195694 
z
" clip-path="url(#p56b4526085)" style="fill: none; stroke: #ff9400"/>
    <path d="M 135.2 71.413718 
L 137.454545 71.819087 
L 139.709091 72.103778 
L 141.963636 72.279018 
L 144.218182 72.356024 
L 146.472727 72.345458 
L 148.727273 72.256988 
L 150.981818 72.09892 
L 153.236364 71.877916 
L 155.490909 71.598741 
L 157.639656 71.28 
L 157.745455 71.26351 
L 160 70.860825 
L 162.254545 70.398434 
L 164.509091 69.870612 
L 165.548185 69.6 
L 166.763636 69.247409 
L 169.018182 68.512735 
L 170.618958 67.92 
L 171.272727 67.636638 
L 173.527273 66.542297 
L 174.086085 66.24 
L 175.781818 65.098735 
L 176.503533 64.56 
L 178.036364 63.037656 
L 178.183148 62.88 
L 179.308228 61.2 
L 179.988126 59.52 
L 180.290909 57.845993 
L 180.291968 57.84 
L 180.290909 57.784109 
L 180.260836 56.16 
L 179.916311 54.48 
L 179.265158 52.8 
L 178.301947 51.12 
L 178.036364 50.766406 
L 177.006295 49.44 
L 175.781818 48.183761 
L 175.34573 47.76 
L 173.527273 46.283118 
L 173.257436 46.08 
L 171.272727 44.782329 
L 170.627293 44.4 
L 169.018182 43.544787 
L 167.2632 42.72 
L 166.763636 42.503321 
L 164.509091 41.636986 
L 162.685005 41.04 
L 162.254545 40.906061 
L 160 40.305177 
L 157.745455 39.816429 
L 155.490909 39.432751 
L 154.920278 39.36 
L 153.236364 39.148017 
L 150.981818 38.958882 
L 148.727273 38.86297 
L 146.472727 38.85909 
L 144.218182 38.947454 
L 141.963636 39.129709 
L 140.099819 39.36 
L 139.709091 39.408838 
L 137.454545 39.788614 
L 135.2 40.276403 
L 132.945455 40.8808 
L 132.440955 41.04 
L 130.690909 41.62138 
L 128.436364 42.507959 
L 127.96238 42.72 
L 126.181818 43.58686 
L 124.718475 44.4 
L 123.927273 44.894137 
L 122.224874 46.08 
L 121.672727 46.529773 
L 120.289339 47.76 
L 119.418182 48.714377 
L 118.799041 49.44 
L 117.697364 51.12 
L 117.163636 52.295066 
L 116.943274 52.8 
L 116.518989 54.48 
L 116.41128 56.16 
L 116.617946 57.84 
L 117.143601 59.52 
L 117.163636 59.559641 
L 118.006451 61.2 
L 119.219613 62.88 
L 119.418182 63.094863 
L 120.837486 64.56 
L 121.672727 65.263534 
L 122.918122 66.24 
L 123.927273 66.914141 
L 125.590393 67.92 
L 126.181818 68.236129 
L 128.436364 69.302704 
L 129.165607 69.6 
L 130.690909 70.168584 
L 132.945455 70.865428 
L 134.626035 71.28 
L 135.2 71.413718 
z
" clip-path="url(#p56b4526085)" style="fill: none; stroke: #ff7300"/>
    <path d="M 137.454545 70.047866 
L 139.709091 70.381659 
L 141.963636 70.596008 
L 144.218182 70.701946 
L 146.472727 70.709889 
L 148.727273 70.629181 
L 150.981818 70.467705 
L 153.236364 70.231559 
L 155.490909 69.924764 
L 157.443998 69.6 
L 157.745455 69.545857 
L 160 69.072749 
L 162.254545 68.520799 
L 164.378962 67.92 
L 164.509091 67.878063 
L 166.763636 67.068609 
L 168.763499 66.24 
L 169.018182 66.112952 
L 171.272727 64.860528 
L 171.758146 64.56 
L 173.527273 63.143809 
L 173.827943 62.88 
L 175.217888 61.2 
L 175.781818 60.122674 
L 176.080876 59.52 
L 176.499409 57.84 
L 176.529014 56.16 
L 176.196982 54.48 
L 175.781818 53.456498 
L 175.509664 52.8 
L 174.455492 51.12 
L 173.527273 50.020292 
L 173.009383 49.44 
L 171.272727 47.891656 
L 171.11287 47.76 
L 169.018182 46.313101 
L 168.643631 46.08 
L 166.763636 45.057487 
L 165.385207 44.4 
L 164.509091 44.022174 
L 162.254545 43.17846 
L 160.799965 42.72 
L 160 42.484223 
L 157.745455 41.932645 
L 155.490909 41.49935 
L 153.236364 41.178251 
L 151.781078 41.04 
L 150.981818 40.966031 
L 148.727273 40.859143 
L 146.472727 40.85418 
L 144.218182 40.951403 
L 143.220309 41.04 
L 141.963636 41.154356 
L 139.709091 41.4678 
L 137.454545 41.895845 
L 135.2 42.446015 
L 134.277614 42.72 
L 132.945455 43.143104 
L 130.690909 44.000299 
L 129.78798 44.4 
L 128.436364 45.063813 
L 126.641268 46.08 
L 126.181818 46.379712 
L 124.298762 47.76 
L 123.927273 48.089517 
L 122.540573 49.44 
L 121.672727 50.535724 
L 121.242056 51.12 
L 120.356468 52.8 
L 119.836604 54.48 
L 119.670931 56.16 
L 119.856434 57.84 
L 120.397959 59.52 
L 121.307572 61.2 
L 121.672727 61.679041 
L 122.638578 62.88 
L 123.927273 64.108814 
L 124.439912 64.56 
L 126.181818 65.808019 
L 126.855141 66.24 
L 128.436364 67.104784 
L 130.161782 67.92 
L 130.690909 68.141437 
L 132.945455 68.941593 
L 135.2 69.582558 
L 135.278002 69.6 
L 137.454545 70.047866 
z
" clip-path="url(#p56b4526085)" style="fill: none; stroke: #ff5200"/>
    <path d="M 137.454545 68.181924 
L 139.709091 68.578131 
L 141.963636 68.840566 
L 144.218182 68.980414 
L 146.472727 69.008171 
L 148.727273 68.933141 
L 150.981818 68.763006 
L 153.236364 68.503452 
L 155.490909 68.157811 
L 156.7446 67.92 
L 157.745455 67.708459 
L 160 67.140305 
L 162.254545 66.468951 
L 162.929975 66.24 
L 164.509091 65.607008 
L 166.763636 64.562845 
L 166.769185 64.56 
L 169.018182 63.103048 
L 169.326955 62.88 
L 171.038248 61.2 
L 171.272727 60.850289 
L 172.102548 59.52 
L 172.646908 57.84 
L 172.736101 56.16 
L 172.402087 54.48 
L 171.657178 52.8 
L 171.272727 52.235547 
L 170.467443 51.12 
L 169.018182 49.644255 
L 168.800004 49.44 
L 166.763636 47.920424 
L 166.523208 47.76 
L 164.509091 46.626658 
L 163.388723 46.08 
L 162.254545 45.592746 
L 160 44.77057 
L 158.767002 44.4 
L 157.745455 44.118733 
L 155.490909 43.623797 
L 153.236364 43.256658 
L 150.981818 43.012326 
L 148.727273 42.887558 
L 146.472727 42.880856 
L 144.218182 42.992502 
L 141.963636 43.224641 
L 139.709091 43.581408 
L 137.454545 44.069118 
L 136.251137 44.4 
L 135.2 44.715051 
L 132.945455 45.542468 
L 131.717937 46.08 
L 130.690909 46.59147 
L 128.681695 47.76 
L 128.436364 47.930028 
L 126.5162 49.44 
L 126.181818 49.77423 
L 124.964533 51.12 
L 123.927273 52.732643 
L 123.887182 52.8 
L 123.265567 54.48 
L 123.040177 56.16 
L 123.207119 57.84 
L 123.771498 59.52 
L 123.927273 59.790584 
L 124.789358 61.2 
L 126.181818 62.778137 
L 126.280086 62.88 
L 128.402699 64.56 
L 128.436364 64.581712 
L 130.690909 65.86531 
L 131.464782 66.24 
L 132.945455 66.852508 
L 135.2 67.614558 
L 136.34902 67.92 
L 137.454545 68.181924 
z
" clip-path="url(#p56b4526085)" style="fill: none; stroke: #ff3000"/>
    <path d="M 139.709091 66.61671 
L 141.963636 66.942067 
L 144.218182 67.124849 
L 146.472727 67.175988 
L 148.727273 67.105062 
L 150.981818 66.919788 
L 153.236364 66.625563 
L 155.407571 66.24 
L 155.490909 66.223003 
L 157.745455 65.646892 
L 160 64.944421 
L 161.051246 64.56 
L 162.254545 64.019075 
L 164.43189 62.88 
L 164.509091 62.826534 
L 166.584883 61.2 
L 166.763636 60.991601 
L 167.909215 59.52 
L 168.610498 57.84 
L 168.763611 56.16 
L 168.404721 54.48 
L 167.547692 52.8 
L 166.763636 51.822746 
L 166.146256 51.12 
L 164.509091 49.751822 
L 164.087368 49.44 
L 162.254545 48.354785 
L 161.077603 47.76 
L 160 47.297386 
L 157.745455 46.495287 
L 156.272904 46.08 
L 155.490909 45.883217 
L 153.236364 45.456066 
L 150.981818 45.171247 
L 148.727273 45.025079 
L 146.472727 45.015866 
L 144.218182 45.143964 
L 141.963636 45.411902 
L 139.709091 45.824559 
L 138.678277 46.08 
L 137.454545 46.41889 
L 135.2 47.215672 
L 133.94322 47.76 
L 132.945455 48.268132 
L 131.0101 49.44 
L 130.690909 49.681702 
L 129.038539 51.12 
L 128.436364 51.840396 
L 127.718142 52.8 
L 126.934887 54.48 
L 126.626988 56.16 
L 126.790846 57.84 
L 127.434566 59.52 
L 128.436364 60.994667 
L 128.590522 61.2 
L 130.420521 62.88 
L 130.690909 63.069622 
L 132.945455 64.434993 
L 133.192258 64.56 
L 135.2 65.389625 
L 137.454545 66.123076 
L 137.929824 66.24 
L 139.709091 66.61671 
z
" clip-path="url(#p56b4526085)" style="fill: none; stroke: #fa0f00"/>
    <path d="M 141.963636 64.782791 
L 144.218182 65.02426 
L 146.472727 65.105945 
L 148.727273 65.038094 
L 150.981818 64.82874 
L 152.736892 64.56 
L 153.236364 64.468511 
L 155.490909 63.897433 
L 157.745455 63.164053 
L 158.466071 62.88 
L 160 62.093066 
L 161.471352 61.2 
L 162.254545 60.508252 
L 163.233401 59.52 
L 164.155815 57.84 
L 164.385675 56.16 
L 163.962918 54.48 
L 162.901756 52.8 
L 162.254545 52.154049 
L 161.065863 51.12 
L 160 50.436928 
L 158.135286 49.44 
L 157.745455 49.271902 
L 155.490909 48.489178 
L 153.236364 47.907067 
L 152.389977 47.76 
L 150.981818 47.5482 
L 148.727273 47.372283 
L 146.472727 47.359059 
L 144.218182 47.508989 
L 142.424804 47.76 
L 141.963636 47.834223 
L 139.709091 48.390445 
L 137.454545 49.152956 
L 136.784587 49.44 
L 135.2 50.277642 
L 133.893689 51.12 
L 132.945455 51.945761 
L 132.107244 52.8 
L 131.064814 54.48 
L 130.690909 55.935866 
L 130.639632 56.16 
L 130.690909 56.693388 
L 130.813042 57.84 
L 131.617143 59.52 
L 132.945455 61.048963 
L 133.098798 61.2 
L 135.2 62.617213 
L 135.680796 62.88 
L 137.454545 63.6209 
L 139.709091 64.33314 
L 140.736956 64.56 
L 141.963636 64.782791 
z
" clip-path="url(#p56b4526085)" style="fill: none; stroke: #d10000"/>
    <path d="M 139.709091 61.238589 
L 141.963636 61.933925 
L 144.218182 62.353526 
L 146.472727 62.514691 
L 148.727273 62.432565 
L 150.981818 62.118827 
L 153.236364 61.580501 
L 154.368639 61.2 
L 155.490909 60.663465 
L 157.346591 59.52 
L 157.745455 59.087523 
L 158.695713 57.84 
L 159.03109 56.16 
L 158.459713 54.48 
L 157.745455 53.654948 
L 156.837347 52.8 
L 155.490909 52.002333 
L 153.513637 51.12 
L 153.236364 51.027725 
L 150.981818 50.516886 
L 148.727273 50.250573 
L 146.472727 50.225547 
L 144.218182 50.442041 
L 141.963636 50.904262 
L 141.278505 51.12 
L 139.709091 51.774868 
L 137.906595 52.8 
L 137.454545 53.19885 
L 136.300665 54.48 
L 135.657256 56.16 
L 135.894811 57.84 
L 137.046647 59.52 
L 137.454545 59.847648 
L 139.619174 61.2 
L 139.709091 61.238589 
z
" clip-path="url(#p56b4526085)" style="fill: none; stroke: #a80000"/>
    <path clip-path="url(#p56b4526085)" style="fill: none; stroke: #800000"/>
   </g>
   <g id="patch_3">
    <path d="M 36 192.24 
L 36 25.92 
" style="fill: none; stroke: #000000; stroke-width: 0.8; stroke-linejoin: miter; stroke-linecap: square"/>
   </g>
   <g id="patch_4">
    <path d="M 259.2 192.24 
L 259.2 25.92 
" style="fill: none; stroke: #000000; stroke-width: 0.8; stroke-linejoin: miter; stroke-linecap: square"/>
   </g>
   <g id="patch_5">
    <path d="M 36 192.24 
L 259.2 192.24 
" style="fill: none; stroke: #000000; stroke-width: 0.8; stroke-linejoin: miter; stroke-linecap: square"/>
   </g>
   <g id="patch_6">
    <path d="M 36 25.92 
L 259.2 25.92 
" style="fill: none; stroke: #000000; stroke-width: 0.8; stroke-linejoin: miter; stroke-linecap: square"/>
   </g>
   <g id="text_3">
    <!-- Contour of Cost Function -->
    <g transform="translate(73.283437 19.92) scale(0.12 -0.12)">
     <defs>
      <path id="DejaVuSans-43" d="M 4122 4306 
L 4122 3641 
Q 3803 3938 3442 4084 
Q 3081 4231 2675 4231 
Q 1875 4231 1450 3742 
Q 1025 3253 1025 2328 
Q 1025 1406 1450 917 
Q 1875 428 2675 428 
Q 3081 428 3442 575 
Q 3803 722 4122 1019 
L 4122 359 
Q 3791 134 3420 21 
Q 3050 -91 2638 -91 
Q 1578 -91 968 557 
Q 359 1206 359 2328 
Q 359 3453 968 4101 
Q 1578 4750 2638 4750 
Q 3056 4750 3426 4639 
Q 3797 4528 4122 4306 
z
" transform="scale(0.015625)"/>
      <path id="DejaVuSans-6f" d="M 1959 3097 
Q 1497 3097 1228 2736 
Q 959 2375 959 1747 
Q 959 1119 1226 758 
Q 1494 397 1959 397 
Q 2419 397 2687 759 
Q 2956 1122 2956 1747 
Q 2956 2369 2687 2733 
Q 2419 3097 1959 3097 
z
M 1959 3584 
Q 2709 3584 3137 3096 
Q 3566 2609 3566 1747 
Q 3566 888 3137 398 
Q 2709 -91 1959 -91 
Q 1206 -91 779 398 
Q 353 888 353 1747 
Q 353 2609 779 3096 
Q 1206 3584 1959 3584 
z
" transform="scale(0.015625)"/>
      <path id="DejaVuSans-6e" d="M 3513 2113 
L 3513 0 
L 2938 0 
L 2938 2094 
Q 2938 2591 2744 2837 
Q 2550 3084 2163 3084 
Q 1697 3084 1428 2787 
Q 1159 2491 1159 1978 
L 1159 0 
L 581 0 
L 581 3500 
L 1159 3500 
L 1159 2956 
Q 1366 3272 1645 3428 
Q 1925 3584 2291 3584 
Q 2894 3584 3203 3211 
Q 3513 2838 3513 2113 
z
" transform="scale(0.015625)"/>
      <path id="DejaVuSans-74" d="M 1172 4494 
L 1172 3500 
L 2356 3500 
L 2356 3053 
L 1172 3053 
L 1172 1153 
Q 1172 725 1289 603 
Q 1406 481 1766 481 
L 2356 481 
L 2356 0 
L 1766 0 
Q 1100 0 847 248 
Q 594 497 594 1153 
L 594 3053 
L 172 3053 
L 172 3500 
L 594 3500 
L 594 4494 
L 1172 4494 
z
" transform="scale(0.015625)"/>
      <path id="DejaVuSans-75" d="M 544 1381 
L 544 3500 
L 1119 3500 
L 1119 1403 
Q 1119 906 1312 657 
Q 1506 409 1894 409 
Q 2359 409 2629 706 
Q 2900 1003 2900 1516 
L 2900 3500 
L 3475 3500 
L 3475 0 
L 2900 0 
L 2900 538 
Q 2691 219 2414 64 
Q 2138 -91 1772 -91 
Q 1169 -91 856 284 
Q 544 659 544 1381 
z
M 1991 3584 
L 1991 3584 
z
" transform="scale(0.015625)"/>
      <path id="DejaVuSans-72" d="M 2631 2963 
Q 2534 3019 2420 3045 
Q 2306 3072 2169 3072 
Q 1681 3072 1420 2755 
Q 1159 2438 1159 1844 
L 1159 0 
L 581 0 
L 581 3500 
L 1159 3500 
L 1159 2956 
Q 1341 3275 1631 3429 
Q 1922 3584 2338 3584 
Q 2397 3584 2469 3576 
Q 2541 3569 2628 3553 
L 2631 2963 
z
" transform="scale(0.015625)"/>
      <path id="DejaVuSans-20" transform="scale(0.015625)"/>
      <path id="DejaVuSans-66" d="M 2375 4863 
L 2375 4384 
L 1825 4384 
Q 1516 4384 1395 4259 
Q 1275 4134 1275 3809 
L 1275 3500 
L 2222 3500 
L 2222 3053 
L 1275 3053 
L 1275 0 
L 697 0 
L 697 3053 
L 147 3053 
L 147 3500 
L 697 3500 
L 697 3744 
Q 697 4328 969 4595 
Q 1241 4863 1831 4863 
L 2375 4863 
z
" transform="scale(0.015625)"/>
      <path id="DejaVuSans-73" d="M 2834 3397 
L 2834 2853 
Q 2591 2978 2328 3040 
Q 2066 3103 1784 3103 
Q 1356 3103 1142 2972 
Q 928 2841 928 2578 
Q 928 2378 1081 2264 
Q 1234 2150 1697 2047 
L 1894 2003 
Q 2506 1872 2764 1633 
Q 3022 1394 3022 966 
Q 3022 478 2636 193 
Q 2250 -91 1575 -91 
Q 1294 -91 989 -36 
Q 684 19 347 128 
L 347 722 
Q 666 556 975 473 
Q 1284 391 1588 391 
Q 1994 391 2212 530 
Q 2431 669 2431 922 
Q 2431 1156 2273 1281 
Q 2116 1406 1581 1522 
L 1381 1569 
Q 847 1681 609 1914 
Q 372 2147 372 2553 
Q 372 3047 722 3315 
Q 1072 3584 1716 3584 
Q 2034 3584 2315 3537 
Q 2597 3491 2834 3397 
z
" transform="scale(0.015625)"/>
      <path id="DejaVuSans-46" d="M 628 4666 
L 3309 4666 
L 3309 4134 
L 1259 4134 
L 1259 2759 
L 3109 2759 
L 3109 2228 
L 1259 2228 
L 1259 0 
L 628 0 
L 628 4666 
z
" transform="scale(0.015625)"/>
      <path id="DejaVuSans-63" d="M 3122 3366 
L 3122 2828 
Q 2878 2963 2633 3030 
Q 2388 3097 2138 3097 
Q 1578 3097 1268 2742 
Q 959 2388 959 1747 
Q 959 1106 1268 751 
Q 1578 397 2138 397 
Q 2388 397 2633 464 
Q 2878 531 3122 666 
L 3122 134 
Q 2881 22 2623 -34 
Q 2366 -91 2075 -91 
Q 1284 -91 818 406 
Q 353 903 353 1747 
Q 353 2603 823 3093 
Q 1294 3584 2113 3584 
Q 2378 3584 2631 3529 
Q 2884 3475 3122 3366 
z
" transform="scale(0.015625)"/>
      <path id="DejaVuSans-69" d="M 603 3500 
L 1178 3500 
L 1178 0 
L 603 0 
L 603 3500 
z
M 603 4863 
L 1178 4863 
L 1178 4134 
L 603 4134 
L 603 4863 
z
" transform="scale(0.015625)"/>
     </defs>
     <use xlink:href="#DejaVuSans-43"/>
     <use xlink:href="#DejaVuSans-6f" x="69.824219"/>
     <use xlink:href="#DejaVuSans-6e" x="131.005859"/>
     <use xlink:href="#DejaVuSans-74" x="194.384766"/>
     <use xlink:href="#DejaVuSans-6f" x="233.59375"/>
     <use xlink:href="#DejaVuSans-75" x="294.775391"/>
     <use xlink:href="#DejaVuSans-72" x="358.154297"/>
     <use xlink:href="#DejaVuSans-20" x="399.267578"/>
     <use xlink:href="#DejaVuSans-6f" x="431.054688"/>
     <use xlink:href="#DejaVuSans-66" x="492.236328"/>
     <use xlink:href="#DejaVuSans-20" x="527.441406"/>
     <use xlink:href="#DejaVuSans-43" x="559.228516"/>
     <use xlink:href="#DejaVuSans-6f" x="629.052734"/>
     <use xlink:href="#DejaVuSans-73" x="690.234375"/>
     <use xlink:href="#DejaVuSans-74" x="742.333984"/>
     <use xlink:href="#DejaVuSans-20" x="781.542969"/>
     <use xlink:href="#DejaVuSans-46" x="813.330078"/>
     <use xlink:href="#DejaVuSans-75" x="865.349609"/>
     <use xlink:href="#DejaVuSans-6e" x="928.728516"/>
     <use xlink:href="#DejaVuSans-63" x="992.107422"/>
     <use xlink:href="#DejaVuSans-74" x="1047.087891"/>
     <use xlink:href="#DejaVuSans-69" x="1086.296875"/>
     <use xlink:href="#DejaVuSans-6f" x="1114.080078"/>
     <use xlink:href="#DejaVuSans-6e" x="1175.261719"/>
    </g>
   </g>
  </g>
 </g>
 <defs>
  <clipPath id="p56b4526085">
   <rect x="36" y="25.92" width="223.2" height="166.32"/>
  </clipPath>
 </defs>
</svg>
